<?xml version="1.0" encoding="utf-8"?>
<!-- Generator: Adobe Illustrator 14.0.0, SVG Export Plug-In . SVG Version: 6.00 Build 43363)  -->
<!DOCTYPE svg PUBLIC "-//W3C//DTD SVG 1.1//EN" "http://www.w3.org/Graphics/SVG/1.1/DTD/svg11.dtd">
<svg version="1.1"
	 id="svg1315" sodipodi:version="0.32" xmlns:svg="http://www.w3.org/2000/svg" xmlns:inkscape="http://www.inkscape.org/namespaces/inkscape" xmlns:sodipodi="http://inkscape.sourceforge.net/DTD/sodipodi-0.dtd" inkscape:version="0.41" xmlns:rdf="http://www.w3.org/1999/02/22-rdf-syntax-ns#" xmlns:cc="http://web.resource.org/cc/" sodipodi:docbase="/home/adrien/Documents/Lanthys/square/SVG travail/apps" xmlns:dc="http://purl.org/dc/elements/1.1/" sodipodi:docname="world.svg"
	 xmlns="http://www.w3.org/2000/svg" xmlns:xlink="http://www.w3.org/1999/xlink" x="0px" y="0px" width="256px" height="256px"
	 viewBox="0 0 256 256" enable-background="new 0 0 256 256" xml:space="preserve">
<sodipodi:namedview  inkscape:cx="133.24101" inkscape:pageopacity="0.0" inkscape:pageshadow="2" bordercolor="#666666" inkscape:window-height="623" inkscape:window-x="403" inkscape:window-y="255" inkscape:cy="187.36511" inkscape:document-units="px" inkscape:window-width="930" inkscape:current-layer="layer1" borderopacity="1.0" pagecolor="#ffffff" inkscape:zoom="1.4142136" id="base">
	</sodipodi:namedview>
<g id="layer5" inkscape:label="globe ombre" inkscape:groupmode="layer">
	
		<radialGradient id="path1471_1_" cx="69.0908" cy="1418.1309" r="41.1592" gradientTransform="matrix(1.7129 0 0 0.5345 8.7536 -529.2045)" gradientUnits="userSpaceOnUse">
		<stop  offset="0" style="stop-color:#1B071D"/>
		<stop  offset="1" style="stop-color:#270B25;stop-opacity:0"/>
	</radialGradient>
	
		<path id="path1471" sodipodi:type="arc" sodipodi:cx="384.00000" sodipodi:cy="222.00000" sodipodi:rx="77.000000" sodipodi:ry="22.000000" fill="url(#path1471_1_)" d="
		M197.6,228.787c0,12.15-31.562,22-70.5,22s-70.5-9.85-70.5-22s31.564-22,70.5-22S197.6,216.637,197.6,228.787z"/>
</g>
<g id="layer2" inkscape:label="globe" inkscape:groupmode="layer">
	
		<path id="path5993" sodipodi:type="arc" sodipodi:cx="372.90503" sodipodi:cy="376.39664" sodipodi:rx="364.52515" sodipodi:ry="359.63687" fill="#054A88" d="
		M241,122c0,62.96-51.039,114-114,114c-62.96,0-114-51.039-114-114S64.04,8,127,8C189.961,8,241,59.04,241,122z"/>
	
		<path id="path2216" sodipodi:type="arc" sodipodi:cx="372.90503" sodipodi:cy="376.39664" sodipodi:rx="364.52515" sodipodi:ry="359.63687" opacity="0.8" fill="#0D91DC" enable-background="new    " d="
		M238.721,122c0,61.701-50.02,111.721-111.721,111.721S15.28,183.701,15.28,122S65.299,10.28,127,10.28S238.721,60.299,238.721,122z
		"/>
	
		<radialGradient id="path2206_1_" cx="1140.0225" cy="1877.5322" r="539.7971" fx="1128.7079" fy="1883.1896" gradientTransform="matrix(0.3149 0 0 0.3149 -237.3028 -533.3331)" gradientUnits="userSpaceOnUse">
		<stop  offset="0" style="stop-color:#1CD7FB"/>
		<stop  offset="1" style="stop-color:#043F74;stop-opacity:0"/>
	</radialGradient>
	
		<path id="path2206" sodipodi:type="arc" sodipodi:cx="372.90503" sodipodi:cy="376.39664" sodipodi:rx="364.52515" sodipodi:ry="359.63687" fill="url(#path2206_1_)" d="
		M241,122c0,62.961-51.039,114-114,114c-62.96,0-114-51.039-114-114S64.04,8,127,8C189.961,8,241,59.039,241,122z"/>
	
		<radialGradient id="path2231_1_" cx="1140.0225" cy="1877.5322" r="539.7971" fx="1128.7079" fy="1883.1896" gradientTransform="matrix(0.3149 0 0 0.3149 -237.3028 -533.3331)" gradientUnits="userSpaceOnUse">
		<stop  offset="0" style="stop-color:#1CD7FB"/>
		<stop  offset="0.44" style="stop-color:#1EADEB"/>
		<stop  offset="0.58" style="stop-color:#0E8ADC"/>
		<stop  offset="0.77" style="stop-color:#065297"/>
		<stop  offset="0.895" style="stop-color:#044374;stop-opacity:0.9647"/>
		<stop  offset="1" style="stop-color:#043F74;stop-opacity:0"/>
	</radialGradient>
	
		<path id="path2231" sodipodi:type="arc" sodipodi:cx="372.90503" sodipodi:cy="376.39664" sodipodi:rx="364.52515" sodipodi:ry="359.63687" fill="url(#path2231_1_)" d="
		M241,122c0,62.961-51.039,114-114,114c-62.96,0-114-51.039-114-114S64.04,8,127,8C189.961,8,241,59.039,241,122z"/>
</g>
<g id="layer4" inkscape:label="carte ombre" inkscape:groupmode="layer">
	
		<radialGradient id="path2213_1_" cx="69.353" cy="589.8867" r="217.1402" gradientTransform="matrix(1.0367 0 0 0.9998 -0.7457 -535.2211)" gradientUnits="userSpaceOnUse">
		<stop  offset="0" style="stop-color:#0F75D2;stop-opacity:0.8646"/>
		<stop  offset="1" style="stop-color:#032B51"/>
	</radialGradient>
	<path id="path2213" opacity="0.1" fill="url(#path2213_1_)" enable-background="new    " d="M127,8C64.072,8,13,59.072,13,122
		c0,26.578,9.171,50.98,24.438,70.375c2.625-3.254,3.502-8.575,1.25-12.188c-1.543-6.722,1.323-14.32-3.25-20.375
		c-5.911-11.232-11.101-23.002-11.688-35.845c0.048-6.328-2.376-13.74-0.906-19.375c7.62-6.416,1.033-18.416,8.594-24.719
		c3.942-3.519,1.329-11.802,8.125-12.25C44.481,70.932,51.63,77.98,57,71.406c3.932-3.127,6.175-7.771,9.562-11.406
		c3.633,4.952,11.474,5.002,15.875,1.094c0.821,3.423,2.32,7.489,6.312,7.875c-6.229,4.09-11.761,11.044-8.906,18.906
		c2.304,4.267-6.284,3.94-6.969,8.781c-2.031,2.523-2.351,9.895-4.875,9.094c-5.152-0.725,1-6.906-2.281-10.125
		c-2.155-6.783-12.149-12.023-18.062-7.406c-3.647,7.014,1.777,16.076,7.531,20.406c1.587,2.588-0.011,8.052-2.406,10.969
		c-0.808,2.914,1.232,11.526-3.812,9.312c-6.397-4.283-14.415,1.939-13.281,9.156c-0.237,5.838,4.144,11.569,9.188,13.062
		c1.092,8.688,6.452,16.713,12.156,23.188c7.037,6.697,17.238,7.844,26.25,8.594c0.607,5.75,4.58,9.611,9.375,13.25
		c4.679,3.596,4.044,8.666,2.906,13.562c0.233,10.413,8.814,18.187,15.75,25.062C116.453,235.492,121.665,236,127,236
		c4.727,0,9.361-0.378,13.938-0.938c5.484-3.242,11.812-5.987,14.906-11.845c6.518,7.644,18.346,1.707,22.5-5.625
		c4.094-1.61,10.412,0.624,13.125-4.688c3.643-4.647,0.875-14.19-5.719-13.062c-2.32-5.645-8.818-10.973-14.844-6.75
		c-5.529,2.888,4.252-5.6,5.312-7.219c5.025-5.615,8.904-12.287,11.22-19.469c5.262-1.617,7.34-8.99,4.344-13.406
		c3.674-3.928,6.342-9.771,6.344-14.688c8.932,4.881,10.961,20.215,23.25,19.312c4.915,0.371,9.395-4.346,11.062-7.094
		c1.273,1.412,2.711,2.143,4.188,2.406C239.406,143.083,241,132.74,241,122C241,59.072,189.928,8,127,8z M132.219,22.156
		c3.18,1.178,7.348,1.498,10.25,3.219c-4.179-1.145-9.383,0.49-9.219,5.5c-3.238,2.205-9.933,6.146-10.188-0.781
		c-4.339-5.719-0.956-8.391,4.875-7.406C129.395,22.607,130.777,22.338,132.219,22.156z M115.312,50.312l0.594,0.812l0.188,0.281
		c-2.373,3.502-6.834,5.679-9.375,9.312C104.617,55.127,111.95,53.037,115.312,50.312z"/>
	
		<radialGradient id="path2197_1_" cx="69.353" cy="589.8857" r="217.1401" gradientTransform="matrix(1.0367 0 0 0.9998 -0.7457 -535.2211)" gradientUnits="userSpaceOnUse">
		<stop  offset="0" style="stop-color:#0F75D2;stop-opacity:0.8646"/>
		<stop  offset="1" style="stop-color:#032B51"/>
	</radialGradient>
	<path id="path2197" opacity="0.2" fill="url(#path2197_1_)" enable-background="new    " d="M127,8
		C72.501,8,26.959,46.331,15.719,97.469c0.727,1.574,1.69,3.048,3.031,4.25c5.379-2.191,2.521-9.301,4.281-13.844
		c-1.487-6.113,0.295-6.733,4.375-9.469c-0.177-3.846,6.45-8.941,0.938-11.75c5.529,0.379,10.181-7.551,15.594-2.438
		c2.667,2.952,7.341,8.231,10.812,3.031c3.069-5.548,8.195-9.071,11.594-14.406c3.286-3.852,7.524-8.38,3.375-1.125
		c-2.558,5.33,4.514,10.473,8.656,5.969c6.932-2.956,8.71-3.589,8.344,3.406c1.742,3.547,5.986,5.331,9.75,4.188
		c-0.924,7.194-9.643,9.025-12.125,15.062c-2.288,5.312,2.189,9.054,2.75,13.938c1,2.229-9.494-1.638-10.25,4.812
		c-0.257,4.847-5.838,9.381-3.062,14.312c-2.407,1.964-4.945,3.576-7.688,4.719c4.951-2.243,0.313-10.031-3.281-9.094
		c-4.637,1.886-3.355,10.409,1.531,9.656c-2.124,0.703-4.331,1.208-6.719,1.25c-3.381,3.075,3.928,6.799-0.219,8.625
		c-4.384,3.586-5.132,9.553-6.094,14.781c-0.176-4.415-2.979-10.732-7.25-11.531c-7.728,2.396-2.269,18.588,5.312,13.875
		c4.074-4.682-1.875,5.984,0.844,8.562c1.651,3.729,4.084,6.941,5.188,10.875c4.244,4.26,7.568,10.549,14.188,10.812
		c5.36,2.211,10.956,1.569,16.406,2.25c6.288,2.323,1.194,6.074,3.375,9.375c5.32,1.984,7.812,6.646,11.094,11.125
		c4.133,4.717-1.875,8.572-0.344,13.719c3.499,8.515,10.08,16.015,17.531,21.188c9.919,0.264,22.217,0.291,29-8.375
		c6.279-0.326,4.63-9.346,10.5-10.406c4.449-4.281-1.545,7.773,5.125,7.031c7.908,1.73,13.009-8.045,15.594-12
		c2.934,4.715,13.064,2.389,10.125-3.875c-2.385-5.098-9.014,1.254-7.562-2.125c1.779-4.889-5.106-11.084-8.562-5.531
		c-3.034,2.236-9.085,9.691-8.594,1.875c-3.032-8.313,6.364-12.621,10.405-18.5c4.64-5.643,8.914-12.102,9.625-19.531
		c5.689,0.734,7.447-5.918,2.312-8.03c-1.771-1.343,5.332-5.399,5.594-8.875c3.701-3.276,1.258-8.584,1.875-11.281
		c4.061-4.004,6.86,1.761,11.188,1.845c5.418,5.062,7.25,16.558,16.5,17.188c6.977,0.98,9.022-7.854,4.875-12.312
		c-3.826-6.643,0.727-13.811,1.219-20.719c1.213,3.28-1.125,13.834,3.845,10.812c5.199-2.877-2.875,7.441,1.875,10.312
		c0.629,2.688,2.555,7.027,5.188,7.438C239.82,140.004,241,131.148,241,122c0-40.257-20.965-75.589-52.5-95.875
		c-0.309-0.071-0.598-0.219-0.906-0.281c-0.023-0.126-0.096-0.222-0.125-0.344C169.922,14.473,149.24,8,127,8z M135.562,16.906
		c1.902,4.783,11.858,0.867,10.905,6c1.78,6.26,3.3,8.243-5.155,7.156c-7.957-2.599,1.451,7.307-6.438,5.188
		c-3.541,0.845-4.328,5.988-8.844,3.188c-5.038,1.84-5.687,0.148-6.156-4.656c-2.19-2.698-4.081-5.625-3.312-8.938
		c0.341-4.534-2.79-7.661,4.875-6.5C126.307,18.697,131.208,17.551,135.562,16.906z M143.5,38.969
		c0.178-0.015,0.37,0.134,0.531,0.594C142.615,40.529,142.967,39.012,143.5,38.969z M118.031,42.781
		c0.071-0.004,0.024,0.095-0.219,0.375c-0.018,4.509,3.812,11.367,8.969,7.688c7.528-0.702,1.65-8.374,9.438-4.969
		c5.006-3.114,0.959,4.169,3.094,6.656c1.763,6.384-6.446-0.068-9.188-0.531c-8.993-0.633-15.482,7.192-21,13.188
		c-3.173,3.72-6.042,1.033-7.062-2.312c-0.605-1.291,0.355-8.585-1.125-8.469c5.511-3.226,10.559-7.552,15.906-11.062
		C116.585,43.722,117.819,42.793,118.031,42.781z M104,78.344c0.177-0.113,0.448-0.141,0.812,0l0.125,0.375
		C105.588,84.926,102.76,79.136,104,78.344z M50.938,91.219c-0.295,0.261-0.061,1.063,0.375,2.781
		c0.383,4.397,3.267,8.283,6.594,11.031c8.446-1.702,2.726-13.952-4.188-13.312C52.058,91.24,51.233,90.958,50.938,91.219z
		 M15.031,100.844C13.74,107.706,13,114.765,13,122c0,24.887,8.074,47.841,21.625,66.594c0.733-1.801,0.816-4.346-0.125-6.031
		c-1.549-4.26-2.397-8.336-0.5-12.594c-1.936-12.376-12.969-21.85-13.312-34.844c-1.966-8.594-2.734-17.356-2.781-26.094
		C17.107,106.978,17.708,101.236,15.031,100.844z M76.031,111.125c0.188-0.096,0.426-0.026,0.656,0.406
		C75.304,113.229,75.469,111.412,76.031,111.125z M118.25,119.25c3.939,3.949,2.977,4.109-1,7.156
		C111.853,125.293,117.1,121.291,118.25,119.25z M137.344,124.875C140.035,127.646,129.904,124.918,137.344,124.875z"/>
	
		<radialGradient id="path2181_1_" cx="69.353" cy="589.8857" r="217.1393" gradientTransform="matrix(1.0367 0 0 0.9998 -0.7457 -535.2211)" gradientUnits="userSpaceOnUse">
		<stop  offset="0" style="stop-color:#0F75D2;stop-opacity:0.8646"/>
		<stop  offset="1" style="stop-color:#032B51"/>
	</radialGradient>
	<path id="path2181" opacity="0.3" fill="url(#path2181_1_)" enable-background="new    " d="M127,8
		c-3.11,0-6.171,0.224-9.219,0.469c-1.656,0.147-3.319,0.287-4.969,0.5c-1.157,0.144-2.292,0.354-3.438,0.531
		c-2.256,0.356-4.517,0.708-6.75,1.188c-0.792,0.173-1.558,0.404-2.344,0.594c-2.352,0.566-4.708,1.103-7,1.812
		c-0.199,0.062-0.396,0.125-0.594,0.188c-27.204,8.59-49.917,27.18-64.062,51.375c2.753,0.437,5.065-3.151,8.094-3.375
		c3.052-2.894,5.157,0.312,8.812,1.5c2.935,1.972,4.536,8.164,8.406,2.344c2.195-2.955,2.727-5.597,6.188-7.344
		c4.982-6.996,10.839-15.515,19.906-15.5c1.091,0.574-7.259,4.829-7.75,8.719c-2.821,4.249,0.629,8.862,5.156,4.906
		c4.091-1.682,7.625-3.172,12.094-2.562c5.105,0.488,11.14,0.979,14.438-3.656c3.333-1.118,5.108-3.304,7.781-5.156
		c1.5-3.183,10.421-3.577,6.281-7.531c1.499-4.605-4.745-4.626-3.062-8.906c-2.985-3.609,2.614-4.581-1.219-6.625
		c-2.841-5.43,1.723-5.058,7.656-5.125c3.746-0.607,10.236,0.693,11.906-1.906c4.86,0.743,1.553-0.137,5.688,2.844
		c3.537,1.038,8.28,0.72,11.03,3.188c-2.891,1.042-2.305,7.353,2.125,8.219c4.306-2.087,5.128,2.435,0.875,2.031
		c-4.086,1.333-8.785,1.898-13.155,1.344c0.765,6.245,7.774,4.495,8.812,9.844c3.875,2.779-2.897,3.068,0.844,7.906
		c-0.69,4.174-3.801-2.911-2-5.344c0.863-6.691-7.725,0.684-6.5-5.312c2.619-2.79-8.006-3.105-7.562-0.406
		c-5.077,2.776,1.207,7.03,4.22,4.438c7.319-2.017,2.019,1.23,2.905,5.781c0.317,4.483,3.527,6.991-1.125,8.531
		c-4.329,1.041-8.698-6.061-13.75-2.938c-5.914,1.503-10.203,6.058-13.656,10.906c0.276,0.502-7.036,3.618-5.875,7.406
		c-1.547,3.691,3.423,7.388,0.062,10c-4.503,3.665-5.856-3.017-3.469-6.562c1.478-3.338,6.916-9.519-1.188-7.188
		c-1.912,4.012,2.926-7.611-3-4.188c-0.719,5.801-2.482,5.893-6.656,10.062c-0.432,2.507-5.226,2.176-5.656,5.938
		c-1.432,5.633,0.203,5.934,2.219,9c-1.446,2.417,5.419,10.901-1,8.125c-3.679-3.038-9.601-1.059-9.125,4.156
		c-1.366,2.999-5.658,9.265-2.062,10.562c5.406,1.651-3.79,3.585-4.594,6.062c-2.389,5.578-3.812,3.415-0.469-1.406
		c-3.762,4.335-8.276,2.982-12.125,4.281c-1.693,1.991,5.337,5.524-0.281,8.25c-5.749,4.593-4.385,12.552-6.875,18.5
		c-1.706,4.64,1.638,8.188,4,11.72c-0.204,5.444,6.546,8.33,9.219,12.655c4.376,1.188,8.889,2.188,13.25,3.156
		c4.647-0.416,10.45-1.528,11.969,4.25c6.344,1.119,6.98,3.478,1.219,3.344c-5,4.244,5.412,2.445,5.531,7.656
		c3.674,3.565,7.193,8.692,7.188,13.625c-4.643,4.028-2.035,9.647,1.25,13.531c1.492,1.795,3.536,4.791,5.594,7.188
		c3.929,2.026,4.752,7.594,10.188,6.03c8.556,0.265,18.97-0.698,24.25-8.25c5.604-0.246,4.073-5.795,6.72-8.219
		c4.578-2.63,11.329-5.095,9.5-11.656c-1.242-3.819-1.125-7.112-0.938-10.78c7.297-8.779,17.211-16.14,19.938-27.845
		c0.479-4.424-0.025-4.78,5.78-5.719c0.449-5.705-5.843-2.319-8.5-1.156c-7.285,3.824,1.08-0.699,2.97-3.469
		c3.932-3.584,8.028-7.517,9.405-12.781c4.136-3.571-3.517-9.012,0-8.719c3.369-1.261,6.565-5.064,9.5-0.906
		c2.866,2.187,7.825,0.776,8.125,5.562c3.662,3.977,4.983,10.373,9.906,12.75c3.282,0.914,7.942,1.66,7.875-4.375
		c-1.738-4.399-5.038-8.869-3.75-13.812c2.127-5.569,1.702-11.811,4.25-17.25c4.401,3.506,1.832,9.227,3.405,14
		c4.02-2.855,6.345-1.298,4.845,2.812c-3.503,3.763-0.478,7.613,1.155,11.812c0.646,2.379,1.549,3.13,2.47,2.938
		c1.469-6.672,2.288-13.57,2.53-20.625c-0.522-1.316-1.151-2.587-1.938-3.781c0.699-0.141,1.45-1.634,1.969-3.5
		c-0.139-4.781-0.602-9.477-1.312-14.094c-0.749-1.611-1.63-3.183-2.25-4.656c0.489-5.495-2.171-10.738-3.031-16.188
		c-2.124-5.943-4.619-11.684-7.655-17.125c-1.556-1.9-3.345-3.64-4.125-5.281c0.512,0.217,0.768,0.238,1.094,0.312
		c-3.217-5.131-6.812-9.992-10.781-14.531c-1.358-0.58-2.734-1.29-4.219-3.812c-1.768-1.417-2.896-3.052-4-4.656
		c-3.049-2.837-6.25-5.507-9.594-8c-1.919-0.799-4.062-1.474-5.781-2.656c-3.975,0.948-14.703-4.567-4.844-2.781
		c1.828,0.22,1.073-0.699-0.345-1.812c-3.414-1.979-6.905-3.783-10.53-5.406c-1.128-0.308-2.209-0.757-3.22-1.406
		c-1.428-0.586-2.92-1.064-4.375-1.594c-0.063,0.059-0.162,0.044-0.219,0.125c-5.87-0.324-12.878-4.86-19.345-3.594
		c-4.176-1.447-8.596-2.6-13.219-3.188C131.064,8.205,129.057,8,127,8z M75.312,30.062c-1.978,2.258-9.246,6.961-3.375,1.906
		C72.144,31.555,77.645,28.438,75.312,30.062z M97.188,31.094c1.119,3.934-5.751,4.736-8,7.062
		c-5.394,2.902-6.315,1.629-0.281-1.062C91.573,35.025,94.534,32.656,97.188,31.094z M125.969,40.469
		c-3.599-0.145-7.952,1.729-5.375,5.875c1.783,6.384,4.67,2.379,9.031,1.094C127.068,43.37,134.753,40.67,125.969,40.469z
		 M92.938,53.938c-4.048,1.312-7.317,4.352-3.531,7.5c2.836,4.441,13.195,1.67,10.562-4.594
		C96.626,56.348,96.021,53.718,92.938,53.938z M27.156,68.281c-0.256-0.019-0.498,0.135-0.75,0.188c-1.735,3.252-3.331,6.57-4.75,10
		c1.84,0.848,4.884,0.285,4.094-2.969C26.647,72.448,30.861,69.813,27.156,68.281z M20.594,81.406c-1.567,4.1-2.909,8.313-4,12.625
		c0.295,1.417,0.768,2.809,1.75,4.188c2.59,4.317,1.275-7.426,2.688-10.25C20.978,85.196,21.21,82.055,20.594,81.406z
		 M19.375,85.281c0.133-0.198,0.414-0.271,0.906,0C19.895,87.665,18.977,85.875,19.375,85.281z M53.281,93.656
		c0.177,1.01,0.354,2.021,0.531,3.031c1.767,1.385,3.847,9.5,6.344,4.5C60.915,98.021,57.532,93.479,53.281,93.656z M14.688,103.062
		C13.652,109.233,13,115.536,13,122c0,23.919,7.396,46.098,20,64.438c-0.126-2.228-0.892-5.61-1.594-7.844
		c-2.812-4.147,2.051-7.115,0.281-11.438c-3.764-10.283-12.2-19.143-12.781-30.719c-1.144-8.398-3.878-16.505-2.656-25.125
		C15.761,108.788,15.484,104.254,14.688,103.062z M137.75,103.719c0.116-0.009,0.248,0.084,0.406,0.312
		c2.852,4.636,7.322-1.774,10.938,2.562c-0.33,1.577-5.939-1.884-8.281-0.031c-2.76,1.217-6.916,2.64-3.844-1.688
		C137.208,104.614,137.4,103.746,137.75,103.719z M99.438,106.562c5.834-0.318,1.742,2.422,2.188,6.281
		c0.65,2.286-12.351,2.732-8.562-1.094c1.151,4.938,11.364-1.666,5.656-3.312C97.761,108.644,99.29,106.595,99.438,106.562z
		 M167.562,109.156c-0.004-0.12,0.213,0.066,0.812,0.844C169.49,112.553,167.574,109.517,167.562,109.156z M108.062,110.25
		c0.109,0.03,0.3,0.244,0.625,0.781c8.087,2.12-4.788,5.715-0.844,1.312C108.141,111.843,107.735,110.16,108.062,110.25z
		 M63.625,110.844c-0.67-0.238-0.861,1.226-1.5,2.062c-2.29,6.869,8.452,3.321,2.344-1.188
		C64.101,111.173,63.848,110.923,63.625,110.844z M119.562,115.625c0.081,0.096,0.104,0.349,0.062,0.844
		c-0.224,3.382,4.083,5.408,5.844,7.625c5.032,0.784,6.692,5.014,8.625-0.875c5.558-3.662,3.177,3.235,9.345,1.562
		c1.517,3.848-5.554,2.213-8.345,3.625c-5.598-0.033-12.601-6.706-16.656-0.375c-2.245,2.916-5.875-4.428-9.5-4.094
		c0.488-5.608-1.02-4.111,3.219-0.094c1.997-0.374,3.212-6.308,6.188-7.531C118.642,116.424,119.319,115.337,119.562,115.625z
		 M229.719,116.312c0.387-0.125,0.824,0.106,0.156,1.094C228.994,116.917,229.332,116.437,229.719,116.312z M231.781,120.5
		c0.209-0.105,0.796,0.752,1.156,2.906C231.744,121.673,231.572,120.605,231.781,120.5z M44.562,133.75
		c-0.453-0.079-0.954,0.213-1.562,1.125c-1.675,1.941-0.268,8.279,3,9.781c3.941-0.876,4.03-1.83,2.094-6.281
		C46.763,137.628,45.922,133.986,44.562,133.75z M156.406,152.406c0.039-0.001,0.189,0.111,0.5,0.406
		C161.404,158.408,156.131,152.413,156.406,152.406z M175.344,198c-0.201,0.064-0.422,0.208-0.656,0.5
		c-3.219,3.604-7.369,5.943-11.125,8.688c-0.146,4.205-4.123,7.375-2.594,11.938c4.559,3.013,11.043-2.028,12.875-6.938
		c2.458-4.317,7.5-8.53,3.281-13.405C176.451,198.432,175.951,197.805,175.344,198z M183.031,205.688
		c-0.318,0.08-0.633,0.363-0.906,0.938c-7.23,4.181,6.719,5.457,4.062,0.595C185.1,206.956,183.986,205.445,183.031,205.688z"/>
	
		<radialGradient id="path2205_1_" cx="69.3535" cy="589.8867" r="217.14" gradientTransform="matrix(1.0367 0 0 0.9998 -0.8458 -535.2211)" gradientUnits="userSpaceOnUse">
		<stop  offset="0" style="stop-color:#0F75D2;stop-opacity:0.8646"/>
		<stop  offset="1" style="stop-color:#032B51"/>
	</radialGradient>
	<path id="path2205" opacity="0.3" fill="url(#path2205_1_)" enable-background="new    " d="M127.594,9.219
		c-2.271,0.002-4.536,0.084-6.812,0.188C91.798,11.032,63.607,23.759,43.5,44.625c-2.279,2.365-4.345,4.93-6.406,7.5
		c-2.641,3.392-5.062,6.943-7.312,10.625c-0.137,0.401-0.351,0.766-0.438,1.188c1.99-2.326,4.547-2.517,6.938-3.969
		c2.892-2.81,3.409-2.149,5.281-0.844c3.71-4.37,1.321-0.277,1.75,1.406c1.954,0.714,4.839,2.896,6.031-0.062
		c0.247,2.224-1.569,6.07,2.094,5.312c1.801-1.508,3.57-3.71,3.625-5.938c3.932-2.225,6.64-6.052,9.062-10.062
		c3.666-2.843,6.589-7.317,11.125-7.781c2.67-1.985,7.053,0.253,8.781-3.688c4.432-2.755,8.92-5.412,12.75-9.062
		c3.808,2.242,4.819,0.26,1.594,3.875c-1.62,2.986-6.128,4.255-8.844,6.219c-3.419,0.576-2.876,2.325-6.25,2.719
		c-4.896,3.232-10.922,7.082-10.938,13.688c3.173,0.821,6.271-2.313,9.531-2.781c2.619-2.104,6.225,0.079,9.312-1
		c4.412,1.261,9.353,0.204,12.125-3.438c1.986-1.538,5.012-1.481,5.812-4c2.796-1.56,4.343-4.108,7.719-4.781
		c1.109-1.483-0.57-3.26-0.156-5.5c-4.853-1.55-2.565-2.563-3.25-5.875c-2.119-2.5-2.444-3.591-0.938-4.5
		c-3.573,0.346,2.818-4.531-1.656-4.438c1.285-1.763-5.09-2.646,0.469-3.094c8.102-2.485,16.978-0.304,25.062-3.062
		c-3.15-0.811,5.822-3.506-1.969-3.719C132.141,9.293,129.863,9.216,127.594,9.219z M138.688,10.75
		c-7.48,2.115,6.156,4.374,0.562,4.906c1.259,1.929,6.877,0.073,9.969,2.906c2.75,0.86,4.236,2.663,5.344,5.312
		c-1.543,2.127-3.559-3.919-5.53-0.594c0.511,2.746,2.928,5.56,5.844,3.688c5.938-0.543,1.729,0.71,1.875,4.281
		c3.515,2.5-3.094-0.5-4.375,1.156c-3.332,0.242-6.976,1.627-10.469,1.094c0.993,4.372,5.942,3.197,8.78,2.469
		c-2.19,0.281,2.986,6.158,1.188,5.281c-3.844-4.417-3.513,0.201-0.188,2.062c1.26,3.322-3.574,0.948-1.844,4.188
		c2.711,4.116,2.42,6.586-2.844,4.094c-2.836-2.165,1.129-7.486-2.062-9.406c-4.363,2.144-3.66,7.636-2.094,11.344
		c0.781,2.39,8.461,0.38,4.156,2.656c-1.984,0.317-4.219-0.342-4.906,1.625c-4.121-0.438,1.225,5.59-3.844,1.188
		c-4.416-0.568-8.061-5.941-12.688-2.969c-4.127,1.1-7.851,3.663-10.188,7.312c3.246-0.542-3.278,4.012-5.031,4.875
		c-3.295,1.646-4.314,7.297-1.969,9.938c3.48-1.086-0.697,4.949-1.906,5.938c-3.139-0.685-5.418,5.938-5.219,0.469
		c-1.449-3.297-0.759-6.513-0.375-9.5c1.985-1.619,0.04-4.619-2.531-2.406c-1.9-0.819-5.614,1.167-4.75,3.281
		c0.542,2.35-4.864,1.302-5.562,4.25c-2.478,2.102-2.547,6.451,1.812,5.156c5.14-0.502-2.086,2.565-1.188,3.25
		c4.583,2.021,3.948,0.401,0.906,3c0.473,2.814,3.925,6.006,0.906,8.844c-3.459-0.36-7.093-4.547-10.188-1.375
		c-0.285,3.96-3.575,6.73-3.531,10.719c-2.689,2.794,6.412,2.352,1.656,5.906c-3.08,1.672-6.892,3.352-7.375,7.344
		c-1.005,0.414-6.614,3.152-4.25,0.312c2.878-4.469-1.753-0.872-3.438,1.531c-0.063,0.174-0.11,0.356-0.219,0.438
		c-0.36,0.635-0.498,1.172,0,1.281c5.126-2.834-1.829,0.525-2.125,2.875c-4.548,2.941-5.49,8.375-6.5,13.219
		c0.229,3.07-2.267,6.265-1.719,9.75c0.616,3.724,5.15,5.895,4.406,10c4.49,3.865,7.357,11.162,14.281,10.5
		c3.806,1.112,7.446,2.531,11.531,1.531c3.757-0.832,6.821,1.018,8.062,4.625c4.595-1.197,4.042,2.961,7.031,2.125
		c0.414,3.027-3.118,5.194-1.375,7.375c3.278,4.422,7.782,8.277,8.594,14.125c2.036,3.277-4.229,5.699-2.219,9.438
		c2.079,3.268,3.637,5.92,5.875,8.53c1.479,3.97,6.346,5.434,7.844,9c4.984,1.73,10.767,0.213,16,0.062
		c4.821-1.402,9.637-3.721,12.594-7.688c4.094-0.297,4.246-4.139,4.625-6.845c3.627-3.391,11.815-4.272,10.5-10.719
		c-0.142-3.536-1.692-5.553-1.344-9c0.453-2.099,0.5-4.506,2.812-6.188c6.922-7.351,15-14.369,17.438-24.594
		c2.008-1.701-0.396-7.486-3.375-4.312c-3.262,0.905-7.466,5.602-10.406,3.438c-0.022-0.977,4.244-1.866,5.594-3.469
		c5.359-2.783,9.309-7.313,13.594-11.281c2.77-2.651,3.631-6.053,4.906-9.405c1.799-3.647-1.665-6.127-5.094-5.781
		c-2.399-2.606,4.988-0.777,6.906-2.719c2.348-0.959,4.948-4.264,7.094-1.47c2.436,2.064,5.433,3.106,8.656,3.312
		c2.311,5.618,6.198,10.516,9.5,15.562c3.664,0.531,2.795-2.145,5.188,1.531c3.318-0.696,2.99-6.302,0.219-8.125
		c-1.443-4.232-2.643-8.863-0.406-13.031c1.166-5.326,1.229-11.045,4.094-15.844c3.675,0.486,2.703,7.434,5.845,5.875
		c1.469-4.182,1.928,5.301,3.219,7.219c0.599,2.784,3.92,5.958,0.095,6.875c-1.431,3.036,0.319,5.254,1.03,8.406
		c0.455,2.229,1.706,3.346,2.688,2.781c0.918-4.629,1.473-9.377,1.812-14.188c-0.428-2.224-1.122-4.361-2.53-6.156
		c-1.104-2.332-2.347-8.288,0.905-3.969c2.438-4.13,0.078-9.333-0.03-13.812c-1.062-3.193-4.397-5.053-2.75-8.812
		c-1.254-5.265-3.453-11.172-3.281-16.219c0.102-0.658-0.119-1.274-0.281-1.906c-0.277-0.684-0.521-1.386-0.812-2.062
		c-1.408-2.417-3.742-4.755-4.688-7.281c-1.583-3.087-4.205-6.12-6.969-7.594c-2.37-1.958,4.551-0.807,0.656-4.594
		c-2.015-3.354-4.605-6.272-7.156-9.219c-1.502,3.684-4.342-3.177-6.094-4.344c-2.938-2.908-5.074-5.393-6.845-8.344
		c-1.792-1.389-3.776-2.637-5.405-3.594c-3.244-0.184-4.533-3.19-8-3.344c-3.812,0.521-1.629,2.173-6.625-1.625
		c-1.326-1.134-9.523-5.73-4.188-4c5.489,1.03,5.971,0.111,0.938-2.594c-3.324-2.211-8.509-1.437-10.75-4.938
		c-1.4,2.992-5.233-0.955-7.625-0.906c-4.562-0.969-9.113-2.884-13.72-2.188C143.125,12.254,140.538,10.939,138.688,10.75z
		 M63.125,125.312c0.082-0.145,0.108-0.279,0.219-0.438c0.056-0.156,0.147-0.26,0.156-0.5c0.25-1.055-1.434-3.027-2.375-2.5
		C58.676,122.31,61.979,126.169,63.125,125.312z M144.75,15.156c0.127,0.018,0.177,0.145,0.062,0.469
		C143.387,16.039,144.369,15.104,144.75,15.156z M104.625,21.219c-0.187,1.31-4.293,3.458-2.906,1.938
		C102.722,22.587,103.541,20.938,104.625,21.219z M107.312,23.281c0.419-0.013,1.019,0.081,1.812,0.375
		C106.528,24.309,106.054,23.319,107.312,23.281z M78.5,28.438c1.328,1.744-4.055,2.841-3.5,4.062c-2.127,0.9-3.019,3.15-5.875,3.25
		c-1.708,0.397-6.889,1.974-1.969-1.625C70.359,31.732,74.101,27.208,78.5,28.438z M83.625,31.438
		c0.26-0.009,0.284,0.06-0.562,0.438c-1.281,3.347-4.277-1.1-0.281-0.406C82.867,31.534,83.365,31.447,83.625,31.438z
		 M75.344,32.719C77.436,33.66,74.849,34.205,75.344,32.719z M78.031,33.188c-0.014,0.126-0.984,0.926-0.969,1.031
		c-2.814,5.125-2.697-0.229,0.594-0.875C77.937,33.188,78.036,33.146,78.031,33.188z M62.906,37.875
		c0.061-0.041,0.227,0.022,0.562,0.281C63.488,39.016,62.724,37.998,62.906,37.875z M137.188,38.344
		c-1.203-0.134-2.322-0.067-1.969,0.719c-2.037,0.482-3.759,4.609,0.938,3.25c3.25-0.795,2.678-0.367,3.5-3.5
		C139.688,38.823,138.393,38.478,137.188,38.344z M72.156,40.094c0.333-0.22,0.351-0.075-0.281,1.062
		c-0.948,2.018-5.655,1.63-1.281,0.062C71.178,40.9,71.824,40.314,72.156,40.094z M74.938,40.219
		c0.078-0.025,0.162,0.027,0.188,0.219C74.42,41.02,74.703,40.293,74.938,40.219z M126.312,41.719
		c-0.514-0.136-1.045,0.157-1.562,0.156c-2.782-0.489-4.865,2.037-2.875,4.312c0.99,4.533,2.636,0.262,5.344,0.812
		C126.184,45.216,131.062,41.685,126.312,41.719z M93.188,55.125c-2.729,0.862-2.638,2.258-3.344,3.812
		c-1.288,1.473,2.632,4.311,4.781,3.156c3.308,1.116,6.394-4.338,2.312-5.094C93.515,57.586,95.677,55.045,93.188,55.125z
		 M51.094,55.594c0.05-0.006,0.023,0.036-0.094,0.188c-0.194,2.122,6.15-0.192,0.844,2.094c-2.475,1.982-4.603,0.469-1.656-1.75
		C50.238,56.14,50.943,55.611,51.094,55.594z M215.719,57.562c0.104-0.134,0.301-0.079,0.656,0.406
		C216.016,60.131,215.406,57.965,215.719,57.562z M99.375,65.781L99,66.344c-2.7,5.011,3.22,2.529,0.969-0.25L99.375,65.781z
		 M104.531,70.219l-0.75,0.031l-0.469,0.031C99.345,72.192,103.877,75.096,104.531,70.219z M25.5,70.312
		c-0.716,1.403-1.403,2.814-2.062,4.25c0.233,1.14,1.138,1.197,2.281-2.094C27.591,70.427,26.93,70.194,25.5,70.312z
		 M123.094,70.688c0.222,0.154,0.276,0.784-0.062,2.25C120.294,74.101,122.429,70.227,123.094,70.688z M22.875,75.719
		c-0.282,0.633-0.604,1.236-0.875,1.875C22.848,78.381,26.266,75.947,22.875,75.719z M122.344,77.281
		c-0.164-0.21-0.037-0.064,1.688,0.031L123.719,78l-0.094,0.219c-0.278,3.914-1.725,6.205-5.5,5.594
		c-0.117-2.885,3.465-0.98,4.281-4.406C122.972,78.049,122.508,77.491,122.344,77.281z M19.5,84.344
		c-0.642,1.83-1.294,3.661-1.844,5.531c0.002,0.021-0.002,0.042,0,0.062c0.113,1.333,0.302,2.619-0.344,3.844
		c2.325,5.733,1.04-2.692,2.25-4.719C19.779,87.941,20.126,84.438,19.5,84.344z M18.562,90.062c0.054-0.097,0.164-0.104,0.375,0.062
		C18.801,91.352,18.401,90.353,18.562,90.062z M55.656,95.375c-0.228,0.159-0.462,0.495-0.719,1.094
		C57.948,102.292,57.25,94.265,55.656,95.375z M58.656,98.75c-0.281,0.004-0.686,0.121-1.25,0.438
		C56.458,105.009,60.625,98.722,58.656,98.75z M161.094,99.719c0.207-0.035,0.551,0.033,1.031,0.25
		c2.133,2.034,5.204,2.626,5.844,5.844c-0.119,2.142,5.15,7.344,0.281,6.219c-4.723-0.949,1.38-5.132-2.25-6.375
		C164.291,105.585,159.648,99.963,161.094,99.719z M137.281,101.594c0.236-0.169,0.523-0.167,0.906,0.094
		c0.529,1.636,2.851,4.274,4.78,2.344c2.104-1.617,10.702,2.108,7.625,4.094c-4.008,0.76-7.881-2.314-11.625,0.344
		c-3.885,2.562-5.733-0.929-3.312-3.938C136.35,104.063,136.572,102.1,137.281,101.594z M105.812,104.469
		c-0.502,0.874-2.007,3.597-2.844,5.219c-2.05,4.055,2.333,7.017,3.562,2.219c-0.526-3.93,0.741-5.143,3.062-1.625
		c4.413,2.07,4.761,5.897-0.562,4.656c-4.443,1.81,2.828,3.443,1.812,5.375c1.08,3.596,2.707-0.454,3.562-2.375
		c2.584-1.136,3.407-5.126,5.469-3.656c1.342,2.528,1.093,4.465,3.562,6.219c2.486,2.062,3.688,4.19,8.125,3.344
		c1.09-0.026,3.078-4.533,5.75-2.562c2.014-1.686,5.438-0.484,2.438,1.969c2.46,1.891,4.881-0.381,5.594-2.781
		c-0.111,3.109,0.125,10.02-4.812,8.156c-3.276,0.53-6.465,1.775-9.812,0.188c-3.671-0.797-8.16-4.488-11.156-0.468
		c0.368,4.393-4.439,1.285-6.031-0.312c-1.047-2.311-8.458-3-6.438-4.75c1.358-1.81-0.621-4.361,0.312-6.594
		c-5.439-1.294-11.359-1.622-16.938-1.312c-1.287,1.546-9.628-0.145-5.812-0.375c3.718,1.167,6.868-2.195,8.031-5.312
		c3.713-0.573,4.958-5.636,8.25-3.875C102.455,106.31,104.225,104.396,105.812,104.469z M112.688,104.531
		c0.385,0.427,0.771,0.854,1.156,1.281c0.862,2.627,5.352,2.387,5.188,5.406C117.066,108.712,113.764,107.652,112.688,104.531z
		 M14.094,106.969C13.442,111.897,13,116.895,13,122c0,22.775,6.76,43.939,18.281,61.75c-0.679-3.502-2.453-7.02-2.156-10.156
		c4.297-5.357-1.463-11.436-3.875-16.25c-5.411-8.025-7.564-17.512-8.656-26.969C13.478,122.852,15.817,114.646,14.094,106.969z
		 M95.469,109.406c-4.483,3.424,4.56,2.829,2.938,0.281C96.793,108.887,96.829,110.122,95.469,109.406z M64.25,113.031
		c-0.275,0.02-0.653,0.184-1.188,0.531C62.491,119.437,66.178,112.894,64.25,113.031z M127.938,113.625l0.188,0.188
		C132.004,116.802,126.637,115.207,127.938,113.625z M126.938,119.188c0.067-0.1,0.154-0.027,0.25,0.312
		c3.768,2.399,1.477,2.166-0.906,1.781C126.625,121.251,126.736,119.488,126.938,119.188z M131.344,119.219l0.281,0.688l0.094,0.219
		C131.502,123.347,129.396,121.385,131.344,119.219z M230.656,121.875c-0.129,0.007-0.137,0.744-0.375,2.312
		c-0.941,4.221,3.6,3.334,1.438-0.25C231.033,122.59,230.785,121.868,230.656,121.875z M170.25,129.594
		c0.6-0.046,1.619,0.342,1.812,1.188c1.904,1.979,6.801,2.172,8.03,2c-1.497,1.585-3.278,3.504-3.594,2.219
		c-0.554-2.94-4.11-1.576-5.5-3.969C169.471,130.117,169.65,129.641,170.25,129.594z M44.438,135.531
		c-0.239-0.123-0.478-0.073-0.719,0.312c-1.412,2.813,3.68,3.789,0.656,5.875c1.169,1.923,2.48,0.792,2.938-0.655
		c-0.292,0.158-0.423-0.773,0.031-0.156c0.281-1.076,0.155-2.268-1.156-2.531C45.83,137.973,45.155,135.9,44.438,135.531z
		 M47.344,140.906c-0.014,0.054-0.015,0.104-0.031,0.156c0.042-0.023,0.078,0.021,0.125-0.062
		C47.394,140.928,47.38,140.955,47.344,140.906z M146.625,138.188c0.111-0.051,0.336-0.01,0.688,0.125
		c2.164,4.232,6.646,6.562,7.688,11.406c2.271,1.531,5.119,4.234,5.062,6.25c2.162,0.322,3.947,6.922,0.781,2.812
		c-1.59-2.412-4.152-2.527-5.469-5.5c-3.021-2.19-2.035-7.051-5.594-8.688C150.213,142.979,145.84,138.545,146.625,138.188z
		 M184,156.688l-0.531,0.156c-5.945,1.541,2.922,3.76,0.844,0.281L184,156.688z M92.719,184.156
		C89.052,188.057,99.039,184.16,92.719,184.156z M145.156,188.688c0.299-0.174,0.635-0.229,0.906,0
		C143.686,190.77,144.262,189.21,145.156,188.688z M175.219,199.594c-3.143,2.4-5.486,6.219-9.625,7.156
		c-2.732,1.9-0.775,5.855-3.594,7.812c-1.426,3.862,1.928,5.289,5.094,3.405c4.924-2.772,6.707-9.713,10.062-13.25
		C177.709,203.119,177.35,199.292,175.219,199.594z M182.844,207.531C179.32,211.459,189.174,207.502,182.844,207.531z"/>
</g>
<g id="layer3" inkscape:label="carte" inkscape:groupmode="layer">
	
		<radialGradient id="path3298_1_" cx="69.3521" cy="585.0518" r="217.1398" gradientTransform="matrix(1.0367 0 0 1.0089 -0.7457 -537.6012)" gradientUnits="userSpaceOnUse">
		<stop  offset="0" style="stop-color:#F7F7F7"/>
		<stop  offset="0.67" style="stop-color:#9ED4E2"/>
		<stop  offset="1" style="stop-color:#3AA5CA"/>
	</radialGradient>
	<path id="path3298" fill="url(#path3298_1_)" d="M118.376,229.333c-0.576-0.092-1.072-0.37-1.104-0.616
		c-0.032-0.248-0.077-0.629-0.102-0.848c-0.059-0.529-2.729-2.869-4.483-3.926c-0.878-0.53-1.588-1.344-1.883-2.16
		c-0.261-0.721-0.611-1.311-0.778-1.311s-0.304-0.248-0.304-0.55c0-0.303-0.361-0.801-0.802-1.11
		c-0.441-0.309-0.689-0.744-0.551-0.968c0.154-0.249,0.023-0.317-0.339-0.18c-0.434,0.166-0.59-0.019-0.59-0.696
		c0-0.58-0.653-1.604-1.755-2.755c-1.812-1.889-2.592-4.196-1.771-5.239c0.208-0.264,0.489-0.945,0.626-1.517
		c0.136-0.572,0.759-1.416,1.384-1.878c1.35-0.997,1.389-1.364,0.335-3.148c-0.44-0.746-0.699-1.619-0.576-1.939
		c0.124-0.322-0.481-2.036-1.344-3.809c-1.168-2.4-2.113-3.721-3.704-5.173c-1.924-1.756-3.847-4.401-3.847-5.295
		c0-0.188,0.257-0.342,0.571-0.342c0.388,0,0.574-0.396,0.583-1.235c0.007-0.68,0.264-1.566,0.571-1.974
		c0.993-1.312,0.407-4.017-0.643-2.966c-0.26,0.26-0.695,0.473-0.967,0.473c-0.702,0-0.615-1.118,0.108-1.396
		c1.103-0.424-0.268-0.873-2.695-0.885c-1.255-0.008-2.474-0.139-2.708-0.291c-0.234-0.154-0.875-1.17-1.424-2.259
		c-0.869-1.722-1.184-2.013-2.428-2.247c-1.914-0.359-4.265-0.354-7.706,0.016c-2.671,0.287-2.975,0.242-4.755-0.711
		c-1.471-0.787-2.636-1.066-5.135-1.232c-3.7-0.247-4.011-0.445-7.336-4.682c-1.067-1.358-2.721-3.192-3.674-4.073
		c-1.138-1.054-1.587-1.705-1.307-1.901c0.68-0.474,0.162-2.576-0.939-3.814c-0.556-0.623-1.226-1.455-1.491-1.851
		c-0.265-0.394-0.828-1.229-1.251-1.855c-0.573-0.849-0.699-1.433-0.494-2.281c0.152-0.627,0.288-1.996,0.3-3.042
		c0.015-1.213,0.241-2.105,0.625-2.471c0.799-0.758,1.587-2.661,1.103-2.661c-0.205,0-0.373-0.515-0.373-1.142
		s0.149-1.141,0.331-1.141c0.182,0,0.311,0.3,0.285,0.665c-0.102,1.496,0.655,0.92,0.797-0.606c0.103-1.101,0.02-1.568-0.249-1.402
		c-0.507,0.312-0.512,0.393,0.167-2.838c0.464-2.207,0.871-3.06,2.188-4.59c0.889-1.033,1.917-1.976,2.282-2.093
		c0.366-0.116,0.666-0.463,0.666-0.771c0-1.013,1.153-2.339,2.219-2.553c0.593-0.119,1.274-0.63,1.567-1.177
		c0.401-0.75,0.718-0.917,1.409-0.744c0.548,0.138,0.891,0.055,0.891-0.214c0-0.241,0.214-0.404,0.476-0.362
		c0.261,0.042,0.732-0.031,1.046-0.162c0.314-0.131,1.018-0.401,1.563-0.601c0.762-0.278,1.047-0.702,1.227-1.826
		c0.324-2.022,2.606-4.345,4.856-4.941c2.138-0.567,3.725-2.535,3.466-4.297c-0.116-0.792-0.381-1.143-0.863-1.143
		c-0.382,0-0.801-0.171-0.93-0.38c-0.129-0.209-0.567-0.38-0.974-0.38c-0.875,0-0.912-0.309-0.153-1.312
		c0.357-0.472,0.481-1.168,0.342-1.911c-0.174-0.928,0.02-1.47,0.943-2.63c1.207-1.518,1.928-3.479,1.931-5.253
		c0.002-0.884,0.224-1.09,1.562-1.45c1.294-0.348,1.671-0.318,2.217,0.175c0.362,0.327,0.91,0.595,1.218,0.595
		c0.308,0,0.728,0.168,0.934,0.374c0.205,0.205,1.224,0.633,2.263,0.95c1.812,0.553,1.917,0.544,2.543-0.21
		c0.359-0.433,0.764-1.374,0.898-2.091c0.287-1.525-0.094-3.965-0.618-3.965c-0.2,0-0.363-0.238-0.363-0.53
		c0-0.291-0.257-0.628-0.571-0.749c-0.333-0.128-0.57-0.698-0.57-1.371c0-1.087,0.084-1.153,1.49-1.153
		c0.822,0,1.588,0.213,1.708,0.476c0.12,0.261,0.114,0.064-0.012-0.438c-0.182-0.719-0.105-0.865,0.359-0.687
		c0.324,0.125,0.662,0.022,0.749-0.228c0.11-0.314,0.398-0.242,0.935,0.233c0.736,0.652,0.85,0.655,2.243,0.043l1.467-0.644
		l-1.332-0.332c-0.732-0.183-2.615-0.397-4.185-0.479c-1.569-0.081-3.152-0.165-3.519-0.187c-1.034-0.062-0.784-0.679,0.38-0.938
		c0.575-0.128,1.388-0.499,1.805-0.823c0.618-0.479,0.661-0.651,0.23-0.917c-0.702-0.433-0.248-1.544,0.631-1.544
		c0.505,0,0.688-0.282,0.678-1.045c-0.013-0.917,0.114-1.032,1.031-0.936c0.926,0.097,1.041-0.013,1.002-0.951
		c-0.026-0.643-0.112-0.798-0.218-0.395c-0.096,0.366-0.437,0.666-0.757,0.666c-0.36,0-0.5-0.217-0.367-0.565
		c0.181-0.472,0.095-0.489-0.53-0.099c-0.411,0.256-0.747,0.826-0.747,1.266c0,0.44-0.299,1.062-0.666,1.383
		c-0.77,0.674-3.936,1.216-5.045,0.864c-1.132-0.359-0.997-1.996,0.21-2.545c0.574-0.262,0.884-0.652,0.765-0.962
		c-0.299-0.778,0.936-2.463,1.614-2.203c0.313,0.12,0.881-0.064,1.262-0.408c0.402-0.363,1.076-0.553,1.604-0.452
		c0.609,0.116,1.057-0.058,1.348-0.523c0.271-0.435,0.291-0.698,0.052-0.698c-0.676,0-0.41-0.758,0.282-0.804
		c0.634-0.042,0.634-0.053,0-0.218c-0.893-0.233-0.839-0.652,0.234-1.809c0.922-0.995,2.144-1.305,2.144-0.543
		c0,0.301,0.164,0.291,0.554-0.033c0.305-0.253,0.743-0.342,0.975-0.199c0.232,0.143,0.757-0.043,1.167-0.415
		c0.594-0.537,0.841-0.578,1.212-0.202c0.37,0.375,0.208,0.705-0.776,1.588c-1.07,0.961-1.136,1.115-0.476,1.115
		c1.008,0,1.009,1.184,0.001,2.096c-0.883,0.798-0.783,2.091,0.421,5.427c0.83,2.299,0.956,4.878,0.25,5.129
		c-0.262,0.093-0.363,0.292-0.226,0.44c0.426,0.46,2.427-0.813,3.511-2.234c0.935-1.225,1.208-1.354,2.89-1.354
		c2.052,0,2.12-0.082,2.483-3c0.282-2.264,0.601-2.72,2.309-3.307c1.137-0.391,1.531-0.401,1.758-0.045
		c0.17,0.268,0.294-0.056,0.298-0.777c0.006-1.363-0.539-1.577-1.729-0.677c-0.406,0.307-1.254,0.563-1.883,0.57
		c-1.696,0.018-2.214-1.062-1.886-3.931c0.353-3.08,0.952-4.14,2.814-4.979c0.852-0.384,1.548-0.832,1.548-0.996
		s0.603-0.516,1.34-0.782c0.903-0.326,1.782-1.125,2.693-2.448c0.744-1.08,1.767-2.185,2.273-2.456s0.85-0.563,0.764-0.649
		c-0.086-0.086-0.529,0.042-0.983,0.285c-0.454,0.243-0.917,0.351-1.028,0.24c-0.305-0.305,2.169-2.479,3.76-3.304
		c0.771-0.4,1.508-0.9,1.639-1.112s0.742-0.386,1.357-0.386c0.615,0,1.119-0.137,1.119-0.304c0-0.45,2.27-1.135,3.857-1.165
		c0.971-0.019,1.689,0.255,2.396,0.911c0.558,0.516,1.261,0.938,1.563,0.938c0.304,0,0.552,0.171,0.552,0.38s0.338,0.38,0.752,0.38
		c1.348,0,5.629,1.981,6.071,2.809c0.246,0.458,0.845,0.827,1.394,0.859c0.887,0.052,0.914,0.006,0.365-0.6
		c-0.326-0.361-0.595-0.942-0.595-1.292c0-0.35-0.171-0.635-0.381-0.635c-0.209,0-0.38-0.275-0.38-0.612
		c0-0.473,0.281-0.572,1.236-0.438c0.681,0.096,1.533,0.303,1.896,0.46c0.489,0.212,1.021-0.115,2.054-1.266
		c0.901-1.003,1.846-1.637,2.67-1.791c2.438-0.457,1.008-2.061-1.578-1.769c-1.023,0.115-2.004-0.038-2.767-0.432
		c-1-0.517-1.217-0.888-1.41-2.418c-0.127-0.995-0.325-2.236-0.442-2.759c-0.465-2.089-0.256-3.153,0.764-3.896
		c0.552-0.401,1.003-0.985,1.003-1.296c0-0.336,0.271-0.513,0.665-0.434c0.52,0.103,0.633,0.426,0.518,1.454
		c-0.084,0.728-0.166,2.579-0.184,4.117c-0.027,2.466,0.07,2.879,0.828,3.492c1.132,0.917,4.443,1.538,6.352,1.192l1.521-0.276
		l-1.047-0.915c-0.574-0.503-1.045-1.255-1.045-1.671c0-0.417-0.238-1.027-0.529-1.357c-0.29-0.33-0.65-1.179-0.803-1.887
		c-0.262-1.235-0.234-1.277,0.693-1.044c0.844,0.211,0.982,0.109,1.088-0.799l0.12-1.042l0.855,0.922
		c0.692,0.746,0.856,0.8,0.856,0.28c0-0.353-0.191-0.642-0.426-0.642c-0.248,0-0.35-0.396-0.242-0.95
		c0.1-0.523,0.049-0.951-0.113-0.951s-0.403-0.727-0.537-1.616c-0.486-3.221-0.635-3.631-1.366-3.823
		c-1.043-0.272-0.949-1.402,0.116-1.417c0.832-0.011,0.834-0.023,0.096-0.442c-0.419-0.237-0.887-0.617-1.04-0.844
		c-0.192-0.286-0.28-0.288-0.285-0.007c-0.004,0.223-1.102,0.624-2.44,0.89c-2.562,0.509-3.383,0.332-4.443-0.958
		c-0.497-0.604-0.438-0.635,0.76-0.398c0.904,0.179,1.578,0.074,2.223-0.348c0.556-0.364,1.291-0.514,1.841-0.376
		c0.543,0.136,0.915,0.062,0.915-0.181c0-0.27,0.57-0.325,1.656-0.163c1.32,0.198,1.705,0.125,1.892-0.357
		c0.287-0.748,1.422-0.762,3.774-0.049c1.754,0.532,1.808,0.525,1.808-0.248c0-0.438,0.299-1.022,0.666-1.3
		c0.604-0.46,0.573-0.506-0.358-0.517c-1.214-0.014-1.488-0.351-1.195-1.467c0.176-0.673,0.508-0.832,1.789-0.856
		c0.864-0.017,1.356-0.116,1.097-0.222c-0.263-0.105-0.476-0.43-0.476-0.722c0-1.374-3.906-2.462-5.23-1.457
		c-1.348,1.021-3.898,0.379-3.898-0.982c0-0.398-0.172-0.83-0.381-0.959c-0.686-0.422-0.4-1.331,0.416-1.331
		c0.477,0,0.876,0.306,0.995,0.76c0.108,0.418,0.38,0.761,0.601,0.761s0.711,0.28,1.088,0.622c0.638,0.576,0.707,0.576,0.928,0
		c0.132-0.342,0.478-0.622,0.769-0.622c0.63,0,0.703-0.609,0.117-0.971c-0.229-0.141-0.331-0.572-0.229-0.958
		c0.131-0.5-0.188-0.923-1.107-1.465c-1.301-0.767-1.699-1.533-0.816-1.566c0.771-0.029-2.83-1.766-4.279-2.064
		c-0.731-0.151-3.215-1.182-5.516-2.292c-2.303-1.11-4.57-2.131-5.041-2.27c-0.962-0.282-1.162-0.96-0.285-0.96
		c0.313,0,0.57-0.171,0.57-0.38s0.258-0.38,0.57-0.38c0.314,0,0.57,0.171,0.57,0.38s0.471,0.381,1.047,0.383
		c0.574,0.001,1.559,0.272,2.188,0.603c1.533,0.807,5.135,1.191,5.135,0.548c0-0.296,0.25-0.378,0.666-0.218
		c0.366,0.141,2.635,0.676,5.041,1.188c2.405,0.512,4.717,1.091,5.135,1.288c1.871,0.878,3.767,1.532,4.44,1.532
		c0.403,0,1.238,0.261,1.854,0.58c1.007,0.52,1.123,0.52,1.123,0c0-0.319,0.172-0.58,0.381-0.58s0.38,0.257,0.38,0.57
		s0.302,0.57,0.671,0.57s1.609,0.359,2.758,0.797s2.695,0.923,3.438,1.076c1.527,0.314,5.307,2.267,5.307,2.74
		c0,0.438-4.336-0.526-7.798-1.733c-0.419-0.146-0.12,0.13,0.662,0.613c0.782,0.483,1.425,1.093,1.427,1.354
		c0.002,0.262,0.178,0.476,0.393,0.476c0.213,0,1.112,0.664,1.996,1.476c0.885,0.812,3.406,2.544,5.604,3.849
		c2.196,1.305,4.53,2.88,5.188,3.5c0.754,0.711,1.287,0.974,1.448,0.713c0.369-0.598-0.101-1.176-0.753-0.926
		c-0.525,0.202-0.617,0.06-0.71-1.103c-0.021-0.261-0.295-0.675-0.608-0.919c-1.14-0.888-0.022-0.912,2.526-0.054
		c2.66,0.895,3.446,1.428,2.746,1.86c-0.231,0.144-0.132,0.342,0.245,0.486c0.352,0.135,0.8,0.145,0.999,0.021
		c0.2-0.123,0.601-0.027,0.891,0.213c0.291,0.241,1.056,0.453,1.699,0.471c0.851,0.024,1.144,0.2,1.071,0.641
		c-0.063,0.397,0.188,0.611,0.729,0.619c0.984,0.014,4.689,3.027,4.689,3.812c0,0.774-0.524,0.68-1.364-0.248
		c-0.396-0.438-1.064-0.959-1.484-1.16c-0.902-0.431,1.313,1.618,4.641,4.288c1.363,1.094,2.852,2.731,3.516,3.869
		c1.189,2.033,5.771,6.947,8.049,8.626l1.287,0.951l-1.426-1.952c-1.486-2.037-1.657-2.42-1.074-2.42
		c0.502,0,7.042,8.707,6.756,8.994c-0.133,0.132-0.502,0.023-0.82-0.242c-0.813-0.676-0.721-0.287,0.182,0.753
		c0.751,0.866,0.979,1.521,0.53,1.521c-0.128,0-1.114-0.941-2.193-2.091c-1.08-1.15-2.118-2.091-2.308-2.091
		c-0.188,0-0.682-0.3-1.092-0.666c-0.738-0.657-0.739-0.65-0.115,0.57c0.41,0.802,0.48,1.236,0.201,1.236
		c-0.236,0-0.33,0.265-0.205,0.59c0.146,0.382,0.074,0.495-0.207,0.321c-0.874-0.54,0.104,0.587,1.164,1.342l1.078,0.768
		l-0.131-1.13c-0.211-1.814,0.512-1.312,1.795,1.246c1.529,3.053,1.894,3.513,2.275,2.892c0.201-0.325,0.857,0.154,2.127,1.551
		c2.062,2.271,3.057,3.747,4.758,7.058c0.646,1.255,1.535,2.65,1.979,3.101c1.339,1.364,1.776,1.99,2.349,3.359
		c0.725,1.73,0.713,2.619-0.031,2.334c-0.449-0.173-0.502-0.076-0.229,0.435c0.503,0.946,1.95,7.996,1.95,9.5
		c0,0.701,0.371,2.077,0.824,3.059c0.926,2.004,1.422,5.777,0.76,5.777c-0.227,0-0.602-0.727-0.83-1.616
		c-0.686-2.646-0.814-3.013-1-2.827c-0.098,0.098,0.074,1.51,0.383,3.139c0.512,2.712,0.701,3.093,2.232,4.509
		c2.146,1.984,2.801,4.304,3.139,11.147c0.219,4.424,0.176,5.037-0.348,5.037c-0.326,0-0.596-0.256-0.596-0.57
		s-0.257-0.57-0.57-0.57c-0.312,0-0.57-0.257-0.57-0.57c0-0.85-0.672-0.689-0.964,0.231c-0.313,0.986,0.141,4.901,0.567,4.901
		c0.17,0,0.42,0.731,0.555,1.625c0.172,1.143,0.484,1.735,1.055,1.996c1.688,0.771,2.562,7.777,1.68,13.479
		c-0.306,1.981-0.74,3.664-0.963,3.738c-0.225,0.073-0.408,0.379-0.408,0.674c0,0.297-0.17,0.539-0.379,0.539
		c-0.21,0-0.381-0.258-0.381-0.574c0-0.719-1.57-4.134-1.979-4.305c-0.5-0.209-0.346-0.899,0.308-1.377
		c0.543-0.396,0.5-0.521-0.381-1.097c-1.261-0.825-1.281-2.129-0.052-3.282c0.787-0.738,1.035-0.804,1.531-0.394
		c0.324,0.271,0.697,0.383,0.83,0.252c0.385-0.387-1.061-5.191-1.562-5.191c-0.262,0-0.74-1.263-1.115-2.946
		c-1.135-5.09-1.455-6.305-2.277-8.649l-0.802-2.281l-0.392,2.061c-0.372,1.958-1.168,2.959-1.484,1.868
		c-0.08-0.279-0.344-1.234-0.586-2.123c-0.242-0.889-0.582-1.616-0.756-1.616c-0.176,0-0.973-0.599-1.771-1.331
		c-0.797-0.732-1.549-1.328-1.664-1.325c-0.398,0.011-2.684,5.404-2.684,6.334c0,0.512-0.238,1.732-0.529,2.713
		c-0.631,2.131-1.441,6.75-1.404,7.994c0.017,0.489-0.383,1.747-0.885,2.797c-0.846,1.765-0.873,2.005-0.371,3.205
		c0.299,0.715,0.562,2.107,0.582,3.097c0.045,2.149,0.586,4.153,1.229,4.551c0.951,0.589,2.139,2.726,2.139,3.847
		c0,1.445-0.678,2.982-1.447,3.277c-0.774,0.297-1.15-0.372-1.45-2.582c-0.273-2.017-0.759-1.945-1.457,0.214
		c-0.306,0.943-0.617,1.236-1.318,1.236c-0.729,0-1.144-0.433-2.002-2.092c-0.594-1.15-1.252-2.148-1.461-2.22
		c-0.211-0.07-0.803-1.012-1.315-2.092c-0.515-1.078-1.349-2.402-1.852-2.939c-0.504-0.538-1.034-1.352-1.179-1.807
		c-0.146-0.455-0.441-0.828-0.658-0.828c-0.218,0-0.306-0.235-0.194-0.524s-0.213-1.136-0.72-1.881
		c-0.508-0.745-0.922-1.525-0.922-1.734c0-0.216-0.619-0.305-1.435-0.207c-0.967,0.117-1.924-0.075-2.934-0.591
		c-0.825-0.421-1.721-0.766-1.99-0.766c-0.269,0-0.49-0.241-0.49-0.539c0-0.297-0.524-0.655-1.166-0.796
		c-0.643-0.141-1.262-0.501-1.377-0.801c-0.115-0.3-0.552-0.728-0.971-0.953c-0.598-0.319-0.979-0.251-1.762,0.317
		c-0.551,0.398-1.602,0.965-2.332,1.259c-0.732,0.294-1.666,0.844-2.076,1.221c-0.408,0.377-0.922,0.621-1.141,0.545
		c-0.219-0.077-1.168,0.089-2.109,0.369c-2.13,0.638-4.27,0.664-4.869,0.063c-0.668-0.667-0.604,0.591,0.1,1.95
		c0.644,1.24,1.43,1.637,2.644,1.332c0.526-0.133,1.406,0.109,2.287,0.629c1.336,0.787,1.415,0.934,1.19,2.211
		c-0.131,0.752-0.336,2.01-0.455,2.793c-0.131,0.863-0.426,1.426-0.746,1.426c-0.359,0-0.53,0.461-0.53,1.43
		c0,1.019-0.22,1.566-0.761,1.904c-0.418,0.262-0.762,0.832-0.762,1.268c0,0.479-0.309,0.873-0.779,0.996s-0.864,0.625-0.992,1.266
		c-0.132,0.661-0.52,1.139-1.025,1.27c-1.269,0.322-3.604,2.434-3.738,3.377c-0.074,0.525-0.842,1.32-2.021,2.094
		c-1.047,0.686-2.307,1.619-2.799,2.076c-1.141,1.053-4.665,3.332-5.156,3.332c-0.205,0-0.836,0.442-1.402,0.984
		c-0.629,0.604-1.514,1.01-2.272,1.046c-1.117,0.054-1.334-0.116-2.106-1.651c-1.076-2.142-1.353-2.943-1.484-4.336
		c-0.073-0.771-0.689-1.64-2.021-2.853c-1.055-0.961-2.016-2.101-2.137-2.534c-0.121-0.435-0.773-1.033-1.451-1.33
		c-0.957-0.422-1.349-0.925-1.754-2.254c-0.875-2.869-1.646-4.187-2.6-4.425c-0.494-0.125-1.154-0.72-1.467-1.322
		s-0.715-1.096-0.896-1.096s-0.436-0.385-0.564-0.854c-0.403-1.461-2.646-3.777-3.381-3.496c-0.357,0.139-0.65,0.511-0.65,0.828
		c0,0.73,1.974,4.194,3.037,5.334c0.443,0.473,0.711,1.014,0.595,1.201c-0.28,0.453,0.157,1.551,0.621,1.551
		c1.069,0,2.44,2.321,2.805,4.754c0.203,1.351,0.494,1.856,1.363,2.369c0.608,0.358,1.476,1.428,1.928,2.373
		c0.451,0.944,1.004,1.844,1.229,1.998c0.273,0.188,0.256,0.28-0.059,0.284c-0.255,0.005-0.363,0.263-0.244,0.576
		c0.288,0.75,0.898,0.731,0.898-0.026c0-0.4,0.279-0.558,0.855-0.476c0.562,0.08,0.855,0.383,0.855,0.883
		c0,0.472,0.613,1.17,1.609,1.837c2.408,1.61,3.748,2.984,4.037,4.141c0.42,1.684,1.51,2.002,3.598,1.054
		c0.982-0.446,2.044-0.972,2.357-1.167c0.313-0.196,0.827-0.459,1.141-0.584c2.473-0.986,4.807-2.212,5.061-2.656
		c0.167-0.293,0.639-0.533,1.047-0.533c0.559,0,0.741,0.264,0.741,1.065c0,0.585,0.214,1.28,0.476,1.544
		c0.381,0.385,0.347,0.553-0.174,0.848c-0.357,0.201-0.561,0.603-0.449,0.889c0.109,0.289-0.174,1.257-0.631,2.15
		c-0.455,0.896-1.242,2.723-1.746,4.062c-1.434,3.806-3.274,6.322-8.26,11.292c-6.896,6.872-10.525,11.227-9.354,11.227
		c0.595,0,0.401,1.457-0.21,1.589c-0.496,0.106-0.5,0.254-0.031,1.151c0.609,1.17,0.585,1.875-0.1,2.698
		c-0.639,0.769-0.186,2.426,0.729,2.664c0.653,0.171,0.722,0.533,0.67,3.554l-0.059,3.36l-1.567,1.521
		c-0.887,0.861-2.419,1.822-3.531,2.217c-1.082,0.383-2.18,0.951-2.438,1.264c-0.261,0.312-1.134,0.904-1.942,1.316
		c-1.621,0.828-2.113,1.606-1.488,2.359c0.483,0.583,0.153,3.133-0.47,3.623c-0.233,0.184-1.302,0.621-2.37,0.969
		c-1.634,0.532-2.052,0.867-2.6,2.08c-0.652,1.45-0.782,1.542-6.04,4.322c-3.222,1.703-5.341,2.113-11.861,2.299
		C122.161,229.422,118.951,229.425,118.376,229.333z M148.213,203.398c-0.316-0.799-0.754,1.373-0.49,2.438
		c0.146,0.586,0.25,0.465,0.459-0.537C148.33,204.585,148.346,203.73,148.213,203.398z M140.154,198.086
		c0-0.186-0.353-0.428-0.783-0.541c-0.643-0.168-0.701-0.107-0.333,0.336C139.54,198.486,140.154,198.598,140.154,198.086z
		 M145.639,189.297c0.781,0,1.859-1.431,1.596-2.117c-0.18-0.467-0.502-0.56-1.281-0.365c-0.573,0.142-1.1,0.416-1.169,0.609
		c-0.07,0.193-0.351,0.354-0.623,0.354s-0.57,0.505-0.66,1.123c-0.135,0.91-0.019,1.145,0.622,1.234
		c0.434,0.062,0.843-0.102,0.91-0.363C145.1,189.512,145.373,189.297,145.639,189.297z M237.896,138.594
		c-0.362-0.334-0.412-0.273-0.223,0.266c0.135,0.383,0.27,0.98,0.297,1.33c0.029,0.35,0.129,0.229,0.223-0.266
		C238.288,139.429,238.152,138.83,237.896,138.594z M237.539,137.4c0-0.729-0.238-0.729-0.518,0c-0.121,0.313-0.055,0.57,0.147,0.57
		C237.373,137.973,237.539,137.715,237.539,137.4z M178.201,134.602c0.005-0.537,0.055-0.545,0.363-0.055
		c0.478,0.754,0.838,0.348,2.278-2.562c0.647-1.308,1.345-2.377,1.548-2.377c0.202,0,0.362-0.213,0.356-0.475
		c-0.007-0.262-0.445,0.018-0.976,0.619c-1.213,1.378-3.635,1.76-5.393,0.852c-0.65-0.336-1.443-0.51-1.766-0.386
		c-0.568,0.218-3.268-2.214-3.268-2.944c0-0.18-0.183-0.327-0.402-0.327c-0.223,0-0.297-0.171-0.168-0.38s0.054-0.38-0.168-0.38
		c-0.223,0-0.405,0.385-0.408,0.855c-0.006,0.692-0.076,0.746-0.375,0.285c-0.318-0.493-0.369-0.485-0.375,0.063
		c-0.004,0.348-0.219,0.727-0.48,0.841c-0.326,0.142-0.207,0.406,0.381,0.837c0.471,0.348,0.855,0.861,0.855,1.145
		c0,0.287,0.238,0.42,0.542,0.305c0.325-0.125,0.817,0.221,1.231,0.866c0.379,0.591,0.946,1.302,1.264,1.579
		c0.316,0.276,0.391,0.412,0.164,0.303c-0.227-0.111-0.412,0.019-0.412,0.287c0,0.27,0.242,0.49,0.539,0.49
		c0.361,0,0.482-0.295,0.369-0.896c-0.147-0.766-0.055-0.859,0.633-0.648c1.031,0.314,0.963,0.234,1.355,1.602
		c0.231,0.813,0.199,1.227-0.107,1.354c-0.312,0.129-0.285,0.292,0.096,0.559C176.562,136.484,178.191,135.495,178.201,134.602z
		 M119.993,128.844c0.166-1.491,0.358-1.792,1.521-2.372c1.724-0.861,3.245-0.845,4.132,0.042c0.39,0.39,1.374,0.833,2.188,0.984
		c0.812,0.152,1.65,0.412,1.859,0.578s0.979,0.397,1.711,0.515c0.731,0.118,2.188,0.375,3.234,0.571
		c1.625,0.305,2.051,0.252,2.92-0.365c1.061-0.752,2.963-0.937,5.278-0.512c1.751,0.32,1.983,0.006,2.988-4.028
		c0.987-3.974,0.745-6.166-0.707-6.375c-0.521-0.075-1.037,0.114-1.224,0.446c-0.49,0.873-2.524,1.197-3.293,0.525
		c-1.009-0.885-2.352-1.186-2.352-0.527c0,1.095-1.998,1.355-2.967,0.387c-0.586-0.585-0.645-0.568-0.84,0.257
		c-0.211,0.9-1.139,1.538-1.139,0.784c0-0.227-0.355-0.767-0.791-1.202c-0.435-0.434-0.691-1.044-0.572-1.355
		c0.162-0.424,0.027-0.506-0.541-0.325c-0.545,0.173-0.758,0.067-0.758-0.377c0-0.34,0.17-0.513,0.379-0.384
		c0.209,0.129,0.381,0.054,0.381-0.167c0-0.221-0.264-0.402-0.588-0.402c-0.457,0-0.568-0.382-0.5-1.704
		c0.049-0.937-0.029-1.821-0.172-1.964c-0.146-0.144-0.263-0.062-0.263,0.183c0,0.245-0.256,0.443-0.569,0.443
		s-0.57-0.256-0.57-0.57s0.171-0.57,0.381-0.57c0.209,0,0.38-0.283,0.38-0.628c0-0.505-0.147-0.458-0.75,0.236
		c-0.413,0.475-1.284,0.973-1.936,1.106l-1.186,0.243l0.987,1.063c0.558,0.602,1.177,0.947,1.424,0.794
		c0.241-0.148,0.338-0.109,0.216,0.088c-0.122,0.197,0.469,1.105,1.311,2.018c1.313,1.421,1.445,1.709,0.916,2.004
		c-0.34,0.19-0.518,0.506-0.396,0.702c0.122,0.196,0.058,0.357-0.142,0.357c-0.2,0-0.461-0.254-0.579-0.564
		c-0.123-0.321-0.47-0.467-0.802-0.339c-0.414,0.159-0.584-0.014-0.584-0.589c0-0.976-1.081-1.497-1.554-0.75
		c-0.185,0.292-0.339,1.001-0.342,1.576c-0.003,0.575-0.177,1.045-0.386,1.045s-0.38-0.133-0.38-0.297
		c0-0.163-0.514-0.49-1.141-0.727c-0.766-0.289-1.142-0.691-1.142-1.224c0-0.438-0.246-0.793-0.548-0.793
		c-0.794,0-1.161-0.789-0.547-1.177c0.38-0.24,0.393-0.333,0.049-0.337c-0.262-0.003-0.476-0.338-0.476-0.744
		c0-0.406-0.174-0.846-0.386-0.977c-0.719-0.444-1.492-2.87-1.27-3.982c0.175-0.875,0.008-1.3-0.811-2.058
		c-0.567-0.525-1.614-1.147-2.326-1.382c-0.712-0.235-1.294-0.608-1.294-0.829c0-0.221-0.385-0.778-0.856-1.236
		c-1.413-1.376-2.188-2.46-2.188-3.059c0-0.866-0.744-0.673-1.114,0.289c-0.255,0.665-0.125,1.072,0.583,1.827
		c0.501,0.534,0.911,1.238,0.911,1.564c0,0.918,1.493,2.597,2.31,2.597c0.403,0,0.733,0.224,0.733,0.497
		c0,0.273,0.771,1.04,1.712,1.703c1.738,1.225,1.983,1.724,1.342,2.737c-0.303,0.479-0.479,0.436-1.158-0.293
		c-0.44-0.472-0.977-0.75-1.191-0.617c-0.265,0.163-0.257,0.375,0.022,0.655c0.228,0.227,0.414,0.704,0.414,1.059
		c0,0.897-1.927,3.004-2.748,3.004c-0.498,0-0.676,0.301-0.676,1.141c0,1.265-0.715,1.512-1.657,0.57
		c-0.314-0.313-0.685-0.57-0.824-0.57c-0.58,0-2.464-1.613-2.464-2.11c0-0.676,1.822-1.164,2.355-0.631
		c0.475,0.475,3.039,0.137,3.45-0.455c0.46-0.662-0.049-2.12-1.052-3.015c-2.06-1.837-2.928-2.534-3.168-2.543
		c-0.139-0.005-0.756-0.689-1.372-1.521c-0.615-0.832-1.343-1.512-1.617-1.512c-0.273,0-0.498-0.171-0.498-0.38
		s0.183-0.38,0.406-0.38c0.555,0,0.021-1.593-0.714-2.13c-0.435-0.318-0.87-0.278-1.752,0.158c-2.241,1.11-2.497,1.212-3.011,1.212
		c-0.285,0-1.064-0.272-1.731-0.605c-1.488-0.742-2.327-0.477-2.327,0.737c0,1.096-0.458,1.503-2.473,2.196
		c-2.004,0.689-4.07,2.539-3.796,3.398c0.227,0.713-1.929,3.168-2.481,2.827c-0.175-0.108-0.576,0.062-0.892,0.377
		c-0.657,0.657-1.687,0.73-3.036,0.218c-1.258-0.478-2.538-0.096-2.538,0.757c0,0.847,0.369,1.097,1.773,1.204
		c0.594,0.044,1.292,0.287,1.551,0.537c0.316,0.306,0.817,0.349,1.522,0.13c4.157-1.288,5.088-1.327,12.272-0.511
		c1.15,0.13,2.998,0.22,4.105,0.198c1.41-0.028,2.074,0.121,2.219,0.497c0.113,0.295,0.449,0.444,0.745,0.33
		c0.362-0.139,0.539,0.061,0.539,0.606c0,0.447-0.249,0.909-0.553,1.025c-0.437,0.167-0.464,0.384-0.131,1.033
		c1.12,2.18,1.137,2.252,0.624,2.578c-0.281,0.178-0.792,0.326-1.136,0.33c-0.344,0.003-0.727,0.271-0.852,0.596
		c-0.13,0.341-0.066,0.491,0.152,0.356c0.208-0.128,0.954,0.375,1.658,1.121c0.708,0.75,1.649,1.355,2.11,1.355
		c1.517,0,4.214,1.472,4.214,2.299c0,0.477,0.389,0.908,1.046,1.162c0.575,0.222,1.816,0.798,2.758,1.281
		C119.337,131.014,119.766,130.881,119.993,128.844z M127.483,121.729c-0.601-0.09-1.003-0.356-0.919-0.608
		c0.171-0.514,0.228-0.516,2.653-0.101C132.574,121.595,130.967,122.253,127.483,121.729z M140.915,121.597
		c0-0.55,0.995-1.514,1.274-1.234c0.123,0.123,0.656-0.061,1.187-0.407c0.991-0.649,1.317-0.358,0.507,0.452
		c-0.252,0.251-0.305,0.456-0.117,0.456c0.187,0,0.006,0.251-0.399,0.558C142.502,122.074,140.915,122.187,140.915,121.597z
		 M132.027,120.673c0.281-0.73,0.519-0.73,0.519,0c0,0.313-0.165,0.57-0.368,0.57S131.908,120.987,132.027,120.673z
		 M111.624,119.343c0-0.487,0.27-0.487,0.571,0c0.129,0.209,0.054,0.38-0.168,0.38C111.805,119.723,111.624,119.552,111.624,119.343
		z M103.59,112.24c-0.024-0.171-0.01-0.482,0.032-0.691s0.077-1.086,0.077-1.948c0-1.219,0.139-1.558,0.624-1.521
		c0.492,0.038,0.6-0.249,0.512-1.351c-0.087-1.093,0.06-1.49,0.676-1.819c0.691-0.37,0.784-0.315,0.761,0.448
		c-0.015,0.478-0.163,1.211-0.329,1.629c-0.167,0.418-0.161,1.139,0.012,1.602c0.24,0.642-0.129,2.846-0.568,3.389
		C105.166,112.249,103.624,112.475,103.59,112.24z M95.088,109.858c-0.334-0.541,0.092-1.161,0.798-1.161
		c0.333,0,0.524,0.267,0.453,0.634C96.192,110.095,95.432,110.415,95.088,109.858z M97.168,109.1c0-0.222,0.171-0.403,0.38-0.403
		c0.487,0,0.487,0.27,0,0.57C97.339,109.397,97.168,109.321,97.168,109.1z M128.785,116.572c-0.311-0.312-0.424-0.268-0.424,0.16
		c0,0.756,0.512,1.267,0.702,0.7C129.143,117.192,129.018,116.805,128.785,116.572z M171.089,111.264
		c0.56-0.411,0.584-0.643,0.181-1.711c-0.258-0.68-0.603-1.235-0.766-1.235c-0.164,0-0.297-0.217-0.297-0.481
		c0-0.265-0.344-1.12-0.762-1.9s-0.76-1.655-0.76-1.943c0-0.289-0.258-0.738-0.571-0.999c-0.313-0.261-0.57-0.88-0.57-1.377
		c0-0.657-0.212-0.904-0.778-0.904c-0.428,0-1.205-0.428-1.729-0.95c-0.523-0.523-1.104-0.951-1.287-0.951s-0.646-0.394-1.029-0.875
		c-0.933-1.178-1.865-1.485-2.434-0.8c-0.344,0.413-0.359,0.782-0.059,1.403c0.225,0.463,0.506,1.27,0.625,1.792
		c0.119,0.523,0.347,1.126,0.506,1.34c0.597,0.806,4.401,3.603,4.901,3.603c0.287,0,0.521,0.256,0.521,0.57s-0.266,0.57-0.59,0.57
		c-0.478,0-0.567,0.416-0.476,2.187c0.104,2.007,0.192,2.196,1.065,2.313c0.523,0.07,1.113,0.284,1.312,0.475
		C168.615,111.892,170.332,111.819,171.089,111.264z M134.448,110.218c0-0.209-0.267-0.38-0.593-0.38s-0.488,0.171-0.358,0.38
		C133.801,110.71,134.448,110.71,134.448,110.218z M139.307,107.79c1.521-0.972,5.032-1.645,5.032-0.964
		c0,0.217,0.179,0.285,0.397,0.15c0.218-0.135,0.646-0.038,0.951,0.215c0.311,0.257,1.655,0.46,3.047,0.46
		c2.063,0,2.647-0.147,3.408-0.86c1.141-1.071,0.805-1.872-1.23-2.941c-0.791-0.415-2.379-1.256-3.53-1.869
		c-2.241-1.194-3.036-1.208-4.624-0.083c-1.234,0.875-2.223,0.924-2.223,0.11c0-0.333-0.355-0.699-0.792-0.812
		c-0.546-0.143-0.733-0.427-0.606-0.915c0.131-0.499-0.02-0.708-0.508-0.708c-0.382,0-0.781-0.214-0.888-0.475
		c-0.252-0.618-1.751,1.164-1.763,2.095c-0.006,0.368-0.353,0.962-0.771,1.32c-0.422,0.361-0.761,1.121-0.761,1.707
		c0,0.581-0.151,1.056-0.338,1.056c-0.637,0-0.778,1.693-0.211,2.558C134.699,109.053,137.367,109.031,139.307,107.79z
		 M145.98,99.049c0.109-0.288,0.021-0.703-0.196-0.921c-0.509-0.509-2.206,0.211-2.206,0.936
		C143.578,99.746,145.718,99.733,145.98,99.049z M118.258,83.022c0.902-0.682,2.18-0.721,2.815-0.086
		c0.325,0.325,0.556,0.346,0.742,0.067c0.148-0.223,0.551-0.508,0.895-0.635c0.399-0.146,0.696-0.825,0.821-1.873
		c0.107-0.904,0.501-2.535,0.875-3.625c0.568-1.66,0.868-2.03,1.842-2.277c1.023-0.259,0.888-0.318-1.12-0.489
		c-1.328-0.113-2.348-0.039-2.438,0.179c-0.269,0.641-0.988,1.227-1.839,1.497c-0.856,0.271-1.453,1.466-1.055,2.111
		c0.258,0.417-0.446,1.947-1.096,2.381c-0.23,0.154-0.804,0.282-1.274,0.285c-0.882,0.006-1.148,0.541-0.476,0.957
		c0.575,0.355,0.456,0.95-0.19,0.95c-0.314,0-0.571-0.171-0.571-0.38s-0.428-0.38-0.951-0.38c-0.523,0-0.951,0.171-0.951,0.38
		s0.257,0.38,0.571,0.38s0.571,0.257,0.571,0.57C115.428,83.78,117.267,83.772,118.258,83.022z M120.756,78.424
		c-0.001-0.445,0.258-1.025,0.577-1.29c0.902-0.749,0.985-0.267,0.167,0.974C120.842,79.106,120.758,79.142,120.756,78.424z
		 M113.882,79.446c0.446-0.282,0.461-0.508,0.083-1.229c-0.276-0.527-0.379-0.596-0.255-0.171c0.126,0.431-0.058,0.916-0.463,1.224
		C112.496,79.838,113.027,79.986,113.882,79.446z M127.465,78.087c0.328-0.853-0.593-1.826-1.229-1.298
		c-0.397,0.329-0.407,0.571-0.048,1.145C126.735,78.811,127.167,78.863,127.465,78.087z M142.438,75.263
		c0-0.516-0.672-0.855-0.914-0.462c-0.229,0.368,0.103,0.82,0.597,0.82C142.294,75.621,142.438,75.46,142.438,75.263z
		 M131.162,73.53c0.279-0.728,0.085-0.728-0.518,0c-0.273,0.329-0.312,0.57-0.088,0.57C130.77,74.101,131.041,73.844,131.162,73.53z
		 M123.896,71.673c0.316-0.464,0.221-4.416-0.107-4.416c-0.112,0-0.727,0.479-1.368,1.064c-1.509,1.377-1.956,3.008-1.019,3.713
		C122.121,72.576,123.407,72.39,123.896,71.673z M135.59,72.022c0-0.486-1.076-1.344-1.688-1.344c-0.389,0-0.226,0.979,0.242,1.445
		C134.773,72.752,135.59,72.696,135.59,72.022z M126.294,65.881c1.442-1.1,1.707-2.046,0.573-2.046c-0.746,0-1.929,0.93-1.929,1.517
		c0,0.177-0.104,0.593-0.231,0.923C124.38,67.128,124.794,67.025,126.294,65.881z M138.062,64.976
		c-0.131-0.209-0.525-0.368-0.879-0.353c-0.524,0.021-0.502,0.087,0.116,0.353C138.318,65.413,138.332,65.413,138.062,64.976z
		 M139.964,62.924c0-0.708-0.222-0.8-1.926-0.8c-1.722,0-1.911,0.081-1.78,0.76c0.12,0.624,0.467,0.768,1.926,0.8
		C139.752,63.719,139.964,63.629,139.964,62.924z M214.498,55.895c0.113-0.186-0.033-0.538-0.328-0.782
		c-0.439-0.364-0.5-0.302-0.332,0.337C214.062,56.313,214.188,56.396,214.498,55.895z M153.516,44.725
		c-0.375-0.373-0.42-0.329-0.213,0.213c0.143,0.375,0.355,0.586,0.473,0.469C153.895,45.29,153.775,44.982,153.516,44.725z
		 M197.977,34.037c0-0.079-0.3-0.378-0.666-0.666c-0.604-0.473-0.617-0.459-0.144,0.144
		C197.664,34.148,197.977,34.35,197.977,34.037z M170.587,18.416c0-0.287-4.71-1.704-4.916-1.479
		c-0.231,0.252-0.104,0.314,2.634,1.281C169.826,18.755,170.587,18.821,170.587,18.416z M162.859,217.518
		c-0.086-0.151-0.176-0.975-0.202-1.826c-0.039-1.265,0.165-1.754,1.106-2.655c1.004-0.961,1.123-1.285,0.918-2.502
		c-0.271-1.591,0.62-3.748,1.545-3.748c1.059,0,4.004-1.613,5.039-2.761c4.194-4.647,4.223-4.672,4.78-4.078
		c0.742,0.785,1.06,3.662,0.459,4.16c-0.26,0.215-0.586,0.277-0.723,0.142c-0.14-0.138-0.251,0.205-0.251,0.765
		c0,0.557-0.172,1.014-0.381,1.014s-0.381,0.17-0.381,0.377c0,0.438-2.541,4.549-4.754,7.693c-1.158,1.646-1.926,2.315-3.209,2.807
		C164.877,217.641,163.083,217.92,162.859,217.518z M183.141,207.949c0-0.223,0.172-0.402,0.381-0.402c0.486,0,0.486,0.27,0,0.569
		C183.312,208.245,183.141,208.17,183.141,207.949z M92.983,184.377c0-0.223,0.171-0.402,0.38-0.402c0.488,0,0.488,0.271,0,0.57
		C93.155,184.674,92.983,184.6,92.983,184.377z M29.187,181.027c-4.23-6.604-9.483-18.521-12.031-27.295
		c-4.063-13.994-5.584-29.976-4.098-43.06c0.617-5.429,1.292-5.763,1.191-0.588c-0.188,9.566-0.116,13.044,0.279,13.521
		c0.231,0.278,0.618,1.7,0.86,3.159c0.242,1.459,0.596,2.95,0.786,3.313s0.349,1.475,0.352,2.471s0.241,2.838,0.528,4.092
		c0.288,1.256,0.632,3.137,0.765,4.184c0.428,3.354,3.548,10.935,5.569,13.533c0.585,0.754,1.852,3.021,2.814,5.039
		c0.962,2.017,1.898,3.668,2.08,3.668c0.4,0,0.698,0.713,1.397,3.346c0.772,2.906,0.675,3.749-0.621,5.359l-1.156,1.438l0.99,3.008
		c1.102,3.351,2.061,7,1.838,7C30.652,183.215,29.957,182.23,29.187,181.027z M182.76,156.98c0.75-0.483,1.631-0.483,1.332,0
		c-0.129,0.209-0.609,0.379-1.068,0.375C182.346,157.352,182.296,157.281,182.76,156.98z M160.695,154.479
		c0-0.672,0.82-0.555,1.055,0.15c0.083,0.248-0.12,0.451-0.451,0.451C160.967,155.08,160.695,154.811,160.695,154.479z
		 M45.227,140.607c-0.138-0.224-0.16-0.496-0.048-0.607c0.272-0.273,1.015,0.207,1.015,0.656
		C46.193,141.143,45.537,141.109,45.227,140.607z M46.574,139.111c0-0.486,0.269-0.486,0.57,0c0.129,0.209,0.054,0.381-0.167,0.381
		C46.755,139.492,46.574,139.32,46.574,139.111z M44.576,136.652c-0.761-1.047-0.824-1.342-0.285-1.342
		c0.209,0,0.38,0.199,0.38,0.444s0.283,0.759,0.63,1.142c0.346,0.383,0.475,0.688,0.285,0.684
		C45.397,137.573,44.942,137.156,44.576,136.652z M231.35,125.196c-0.151-0.152-0.267-0.719-0.254-1.259l0.024-0.982l0.366,0.917
		C231.883,124.861,231.801,125.647,231.35,125.196z M62.392,123.195c-0.164-0.265-0.195-0.584-0.07-0.71
		c0.341-0.34,0.712,0.16,0.528,0.712C62.721,123.583,62.632,123.583,62.392,123.195z M65.029,122.534
		c0.545-0.545,1.079-0.903,1.186-0.796c0.296,0.296-1.101,1.788-1.674,1.788C64.249,123.525,64.453,123.11,65.029,122.534z
		 M61.029,121.624c0-0.209,0.267-0.38,0.593-0.38s0.487,0.171,0.358,0.38C61.676,122.116,61.029,122.116,61.029,121.624z
		 M63.692,112.879c0-0.487,0.27-0.487,0.571,0c0.129,0.209,0.054,0.38-0.168,0.38C63.873,113.259,63.692,113.088,63.692,112.879z
		 M57.986,98.432c0-0.487,0.27-0.487,0.571,0c0.129,0.209,0.054,0.38-0.168,0.38C58.167,98.812,57.986,98.642,57.986,98.432z
		 M55.882,95.372c-0.35-0.565-0.072-0.765,0.539-0.388c0.327,0.202,0.366,0.398,0.11,0.556
		C56.314,95.674,56.022,95.598,55.882,95.372z M18.103,91.969c0-0.523,0.086-0.737,0.192-0.475c0.105,0.261,0.105,0.689,0,0.95
		C18.19,92.705,18.103,92.492,18.103,91.969z M18.342,88.504c-0.283-0.737,0.476-4.139,0.923-4.139c0.313,0,0.115,1.669-0.45,3.788
		C18.63,88.85,18.509,88.939,18.342,88.504z M22.608,74.861c0-0.209,0.171-0.38,0.38-0.38s0.38,0.171,0.38,0.38
		s-0.171,0.38-0.38,0.38S22.608,75.07,22.608,74.861z M23.749,72.751c0-0.472,1.212-2.509,1.388-2.333
		c0.204,0.204-0.906,2.542-1.208,2.542C23.83,72.96,23.749,72.866,23.749,72.751z M102.506,70.226
		c-0.007-0.354,0.17-0.755,0.394-0.893c0.67-0.415,0.765,0.022,0.173,0.804C102.585,70.779,102.517,70.79,102.506,70.226z
		 M25.271,69.583c0-0.209,0.171-0.486,0.38-0.615c0.209-0.129,0.38-0.064,0.38,0.146c0,0.209-0.171,0.486-0.38,0.615
		C25.442,69.857,25.271,69.792,25.271,69.583z M99.233,65.736c0-0.418,0.226-0.761,0.502-0.761c0.385,0,0.407,0.179,0.096,0.761
		C99.321,66.688,99.233,66.688,99.233,65.736z M50.137,63.36c0.04-0.261,0.206-0.689,0.369-0.95c0.19-0.304,0.083-0.475-0.296-0.475
		c-0.326,0-0.593-0.251-0.593-0.559c0-0.363,0.22-0.474,0.627-0.318c0.635,0.244,0.615-0.239-0.109-2.667
		c-0.144-0.482,0.035-0.755,0.589-0.9c0.437-0.114,0.795-0.322,0.795-0.463c0-0.14,0.311-0.278,0.691-0.307
		c1.162-0.088,3.885-1.407,3.749-1.816c-0.071-0.211-0.518-0.405-0.995-0.43c-1.012-0.053-1.609-0.829-1.329-1.729
		c0.108-0.348,0.019-0.743-0.199-0.877c-0.22-0.136-0.396,0.07-0.396,0.465c0,0.391-0.251,1.042-0.559,1.448
		c-0.874,1.155-0.731-0.154,0.18-1.647c1.045-1.712,0.956-2.232-0.43-2.509c-1.869-0.374-1.966-0.297-0.849,0.663
		c1.026,0.882,1.034,0.923,0.393,1.901c-0.36,0.55-0.908,1-1.217,1s-0.562,0.151-0.562,0.336s-0.347,0.427-0.771,0.538
		c-0.424,0.111-0.744,0.345-0.71,0.52c0.164,0.842-0.577,2.789-1.061,2.789c-0.3,0-0.454,0.148-0.342,0.329
		c0.112,0.181,0.678,0.255,1.259,0.165c0.963-0.149,0.997-0.117,0.389,0.378c-0.366,0.298-0.666,0.755-0.666,1.017
		c0,0.593-1.822,0.196-2.693-0.588c-0.33-0.297-0.893-0.541-1.25-0.541c-0.543,0-0.579-0.131-0.218-0.806
		c0.237-0.443,0.757-0.891,1.155-0.995c0.397-0.104,0.723-0.351,0.723-0.547c0-0.197-0.146-0.268-0.325-0.158
		c-0.178,0.11-0.517-0.222-0.752-0.738c-0.235-0.516-0.58-0.938-0.765-0.938c-0.578,0-2.332,1.543-2.24,1.971
		c0.048,0.223-0.153,0.493-0.448,0.6c-0.372,0.135-0.463,0.003-0.297-0.428c0.131-0.342,0.073-0.622-0.129-0.622
		s-0.369-0.283-0.369-0.629c0-0.585-0.048-0.585-0.695,0c-0.383,0.346-0.878,0.629-1.1,0.629c-0.223,0-1.243,0.753-2.267,1.673
		c-1.527,1.372-2.055,1.637-2.934,1.469c-0.852-0.163-1.263,0.02-2.009,0.893l-0.938,1.097l0.672-1.224
		c0.37-0.673,2.136-3.187,3.925-5.586c16.889-22.643,41.518-38.229,69.104-43.73c10.753-2.145,23.674-3.039,30.076-2.081
		c1.849,0.276,2.966,0.566,2.481,0.644c-0.483,0.078-0.973,0.384-1.087,0.682c-0.122,0.318-0.73,0.541-1.477,0.541
		c-1.393,0-2.098,0.6-1.032,0.877c0.558,0.146,0.539,0.182-0.108,0.219c-0.43,0.024-0.982,0.246-1.23,0.494
		c-0.309,0.309-2.857,0.483-8.159,0.556c-9.181,0.126-9.82,0.196-12.489,1.375c-1.137,0.502-2.954,1.018-4.036,1.146
		c-1.083,0.127-2.281,0.403-2.663,0.611s-1.2,0.486-1.816,0.618c-0.833,0.178-0.984,0.324-0.589,0.568
		c0.293,0.181,0.667,0.246,0.831,0.145c0.164-0.101,0.898-0.019,1.632,0.184c0.805,0.222,1.419,0.23,1.549,0.02
		c0.119-0.192,0-0.349-0.263-0.349c-0.3,0-0.344-0.131-0.118-0.349c0.646-0.624,3.014-0.595,3.931,0.047
		c0.83,0.581,0.84,0.636,0.177,0.979c-0.708,0.366-3.33,0.989-5.895,1.401c-1.036,0.167-1.444,0.446-1.608,1.103
		c-0.206,0.818-0.414,0.879-2.987,0.879c-2.964,0-6.466,0.808-6.258,1.445c0.171,0.523,2.094,0.722,2.659,0.275
		c1.551-1.228,5.427-1.471,4.982-0.312c-0.229,0.598,0.85,1.143,1.187,0.599c0.124-0.2,0.557-0.364,0.963-0.364
		c0.425,0,0.738-0.26,0.738-0.611c0-0.401,0.207-0.532,0.602-0.38c0.331,0.127,0.856,0.231,1.168,0.231
		c0.495,0,0.493,0.073-0.015,0.581c-0.928,0.927-0.393,1.566,1.161,1.385c0.952-0.111,1.292-0.029,1.108,0.268
		c-0.181,0.293,0.285,0.428,1.482,0.428c1.201,0,1.814,0.178,1.965,0.57c0.121,0.312,0.458,0.57,0.749,0.57
		c0.474,0,0.691,0.466,0.435,0.934c-0.052,0.096,0.241,0.419,0.651,0.719c0.641,0.468,0.683,0.683,0.298,1.526
		c-0.246,0.54-0.867,1.087-1.378,1.215l-0.931,0.233l0.822,0.823c0.452,0.452,1.194,0.854,1.649,0.893
		c0.455,0.038,1.359,0.345,2.009,0.681c0.929,0.48,1.154,0.816,1.053,1.574c-0.071,0.53-0.375,1.119-0.677,1.31
		c-0.413,0.261-0.425,0.348-0.05,0.352c0.274,0.003,0.392,0.177,0.263,0.386s0.032,0.38,0.358,0.38c0.327,0,0.593,0.257,0.593,0.57
		c0,0.312-0.235,0.57-0.522,0.57c-0.796,0-4.042,1.512-4.042,1.883c0,0.18-0.385,0.255-0.856,0.168
		c-0.471-0.087-0.643-0.058-0.383,0.066c0.351,0.167,0.368,0.42,0.064,0.987c-0.225,0.419-0.506,0.665-0.625,0.546
		c-0.12-0.12-0.41,0.046-0.646,0.369c-0.236,0.323-0.737,0.631-1.114,0.686c-0.808,0.119-1.389,0.927-1.138,1.582
		c0.154,0.4-0.633,0.782-1.96,0.953c-0.209,0.027-0.617,0.246-0.907,0.486c-0.29,0.241-0.76,0.44-1.045,0.443
		c-0.59,0.006-3.563,2.77-3.563,3.312c0,0.196-0.364,0.241-0.809,0.1c-0.519-0.165-0.721-0.114-0.563,0.14
		c0.201,0.324-2.778,1.104-3.573,0.936c-3.291-0.695-4.61-0.744-7.892-0.29c-1.346,0.186-2.171,0.13-2.535-0.171
		c-0.417-0.346-0.848-0.318-1.904,0.123c-0.75,0.313-1.365,0.724-1.365,0.911c0,0.188-0.533,0.357-1.185,0.375
		c-0.651,0.019-2.346,0.644-3.765,1.389c-3.05,1.602-3.615,1.689-3.235,0.5c0.15-0.471,0.312-1.399,0.359-2.063
		c0.11-1.548,1.382-3.196,4.884-6.328c3.283-2.937,7.887-5.336,7.887-4.111c0,0.18,0.432,0.245,0.96,0.144
		c0.896-0.171,0.915-0.219,0.285-0.708c-0.643-0.499-0.638-0.553,0.086-1.119C88.27,38.2,89.073,38,89.65,38.082
		c0.761,0.108,1.102-0.042,1.265-0.556c0.132-0.416,1.535-1.314,3.427-2.197c3.677-1.714,5.157-2.97,4.855-4.122
		c-0.161-0.614,0.121-0.94,1.347-1.566c0.853-0.435,1.683-0.762,1.845-0.727c0.162,0.035,0.589-0.066,0.95-0.224
		c0.422-0.185,1.148,0.016,2.036,0.564c1.11,0.686,1.441,0.752,1.696,0.341c0.701-1.133-2.312-1.904-8.668-2.217
		c-1.127-0.056-1.083-0.855,0.129-2.294c0.736-0.875,0.838-1.17,0.403-1.17c-0.32,0-0.693,0.18-0.83,0.401
		c-0.164,0.264-0.582,0.182-1.227-0.24c-0.86-0.563-1.284-0.586-3.507-0.189c-1.391,0.249-3.032,0.783-3.646,1.188
		c-0.615,0.405-1.427,0.737-1.806,0.739c-0.378,0.001-0.582,0.174-0.453,0.383c0.392,0.634,1.717,0.428,2.968-0.462
		c1.296-0.922,5.723-1.459,6.405-0.776c0.692,0.691-1.473,3.252-3.71,4.39c-1.147,0.583-2.181,1.311-2.298,1.616
		c-0.117,0.306-0.452,0.556-0.743,0.556s-0.535,0.214-0.541,0.475c-0.011,0.517-3.048,2.186-3.977,2.186
		c-0.314,0-1.044,0.548-1.621,1.217c-2.423,2.812-2.65,2.963-4.321,2.898l-1.599-0.062l1.199-1.07
		c0.66-0.589,1.199-1.165,1.199-1.28c0-0.401-1.644,0.674-2.838,1.857c-0.663,0.656-1.848,1.384-2.635,1.62
		c-0.986,0.294-1.304,0.3-1.022,0.019c0.706-0.706,0.443-1.167-0.287-0.505c-1.165,1.053-1.301,0.71-0.375-0.941
		c0.484-0.864,1.594-2.157,2.467-2.873c0.873-0.716,1.763-1.807,1.978-2.423c0.226-0.647,0.812-1.281,1.386-1.5
		c1.288-0.489,1.326-0.483,1.326,0.205c0,0.794,1.139,1.174,1.554,0.519c0.24-0.379,0.338-0.395,0.342-0.055
		c0.003,0.261,0.197,0.475,0.431,0.475c0.241,0,0.336-0.337,0.22-0.781c-0.148-0.565,0.028-0.87,0.637-1.101
		c0.463-0.176,1.069-0.594,1.348-0.93c0.279-0.335,0.914-0.61,1.411-0.61s0.904-0.153,0.904-0.34c0-0.2-0.591-0.201-1.427-0.005
		c-0.784,0.185-2.141,0.235-3.013,0.111c-1.364-0.193-1.835-0.053-3.355,0.992c-0.973,0.669-1.884,1.1-2.026,0.958
		c-0.142-0.142,0.052-0.484,0.43-0.76c0.466-0.34,0.55-0.588,0.26-0.767c-0.677-0.418,0.747-1.766,1.584-1.5
		c1.026,0.326,1.573-0.152,0.921-0.804c-0.301-0.3-0.709-0.546-0.907-0.546c-0.199,0-0.574-0.257-0.835-0.57
		c-0.596-0.718-2.558-0.727-3.804-0.017c-0.523,0.298-1.534,0.811-2.245,1.14c-0.712,0.329-2.017,1.237-2.9,2.019
		c-0.884,0.782-2.326,1.998-3.205,2.703s-1.779,1.677-1.999,2.16c-0.221,0.483-0.926,1.096-1.567,1.362
		c-0.642,0.266-1.689,0.937-2.329,1.492c-0.639,0.555-1.654,1.264-2.256,1.575c-0.877,0.453-0.972,0.613-0.476,0.803
		c0.34,0.13,0.619,0.072,0.619-0.131c0-0.203,0.18-0.368,0.401-0.368c0.22,0,1.033-0.43,1.806-0.955
		c0.772-0.524,1.462-0.781,1.533-0.57c0.34,1.02,4.033-0.187,5.487-1.793c0.367-0.405,1.051-0.704,1.521-0.663
		c0.47,0.041,1.197-0.111,1.615-0.337c0.885-0.479,3.289-1.371,3.718-1.379c0.162-0.003,0.033,0.393-0.287,0.88
		c-0.319,0.487-0.489,0.978-0.376,1.09c0.113,0.112-0.4,0.735-1.14,1.384c-0.739,0.648-1.344,1.354-1.344,1.566
		c0,0.213-0.64,0.654-1.421,0.98c-1.508,0.63-3.144,1.969-3.144,2.574c0,0.208,0.767,0.277,1.798,0.161
		c1.533-0.173,1.699-0.13,1.127,0.288c-0.657,0.48-3.673,3.19-6.378,5.732c-0.749,0.703-1.587,1.964-1.864,2.801
		c-0.277,0.837-0.628,1.445-0.782,1.35c-0.154-0.095-0.486,0.325-0.738,0.933c-0.677,1.634-2.845,3.503-3.412,2.941
		c-0.342-0.339-0.392-0.298-0.211,0.176c0.171,0.451-0.082,0.73-0.929,1.026c-0.64,0.223-1.165,0.671-1.165,0.996
		c0,0.325-0.205,0.59-0.457,0.59c-0.337,0-0.345,0.111-0.029,0.427c0.545,0.544,0.206,1.417-0.975,2.511
		c-0.513,0.476-0.797,0.864-0.631,0.864s-0.16,0.428-0.725,0.95C50.624,63.923,50.024,64.101,50.137,63.36z M45.981,47.297
		c0.177-0.76,0.139-1.014-0.114-0.76c-0.209,0.209-0.5,0.894-0.647,1.521c-0.177,0.76-0.139,1.014,0.114,0.76
		C45.543,48.609,45.834,47.924,45.981,47.297z M44.966,46.516c0.047-0.562-0.078-0.873-0.297-0.738
		c-0.445,0.275-0.513,1.709-0.081,1.709C44.752,47.487,44.922,47.05,44.966,46.516z M49.046,42.925
		c0.808-0.893,0.144-1.04-0.734-0.163c-0.672,0.672-0.748,0.923-0.276,0.923C48.213,43.686,48.667,43.343,49.046,42.925z
		 M51.329,39.503c0.297-0.481-0.206-0.481-0.951,0c-0.492,0.317-0.481,0.369,0.073,0.374C50.804,39.881,51.199,39.712,51.329,39.503
		z M55.032,37.138c0.651-0.607,0.995-1.221,0.832-1.484c-0.185-0.299-0.114-0.348,0.21-0.148c0.326,0.201,0.43,0.126,0.312-0.226
		c-0.226-0.679-0.77-0.572-1.254,0.246c-0.209,0.354-0.851,1.124-1.427,1.711c-0.575,0.587-1.046,1.273-1.046,1.524
		C52.66,39.255,53.036,38.998,55.032,37.138z M88.609,28.858c-0.129-0.209-0.406-0.38-0.616-0.38c-0.209,0-0.274,0.171-0.145,0.38
		s0.406,0.38,0.615,0.38C88.673,29.238,88.738,29.067,88.609,28.858z M104.333,24.302c0.548,0.005,0.557,0.056,0.063,0.374
		c-0.497,0.321-0.49,0.37,0.048,0.375c0.34,0.003,0.82-0.236,1.066-0.533c0.356-0.428,0.298-0.585-0.28-0.769
		c-1.002-0.318-1.982,0.121-1.946,0.873c0.019,0.395,0.101,0.45,0.222,0.149C103.612,24.51,103.983,24.298,104.333,24.302z
		 M93.08,20.874c0.32,0,0.681-0.257,0.802-0.57c0.293-0.764-0.083-0.717-1.583,0.197c-0.742,0.452-1.146,0.941-0.988,1.197
		c0.186,0.3,0.407,0.24,0.727-0.196C92.29,21.157,92.759,20.874,93.08,20.874z M97.358,17.452c0.129-0.209,0.064-0.38-0.146-0.38
		c-0.209,0-0.486,0.171-0.616,0.38c-0.129,0.209-0.063,0.38,0.146,0.38C96.952,17.833,97.229,17.662,97.358,17.452z M100.592,14.411
		c0-0.209-0.257-0.38-0.571-0.38s-0.57,0.171-0.57,0.38s0.256,0.38,0.57,0.38S100.592,14.62,100.592,14.411z M91.462,59.071
		c0-0.32-0.257-0.681-0.571-0.801c-0.738-0.283-0.738-0.898,0-0.898c0.314,0,0.571-0.257,0.571-0.57c0-0.312-0.181-0.57-0.403-0.57
		c-0.222,0-0.302-0.164-0.178-0.363c0.124-0.2,0.506-0.256,0.85-0.125c0.486,0.187,0.564,0.084,0.355-0.461
		c-0.297-0.774,0.283-1.317,1.418-1.326c0.524-0.004,0.658,0.194,0.511,0.755c-0.154,0.586-0.011,0.761,0.621,0.762
		c0.451,0.001,1.473,0.183,2.269,0.404c1.33,0.369,1.439,0.501,1.332,1.605c-0.154,1.577-1.334,2.158-4.397,2.165
		C91.956,59.652,91.462,59.532,91.462,59.071z M143.832,55.978c-0.523-0.523-0.227-1.267,0.507-1.267
		c0.507,0,0.761,0.253,0.761,0.76C145.1,56.204,144.355,56.501,143.832,55.978z M123.088,45.304
		c-0.238-0.444-0.433-1.076-0.433-1.403c0-0.327-0.171-0.595-0.38-0.595c-0.449,0-0.499-1.507-0.072-2.178
		c0.172-0.271,0.809-0.402,1.516-0.313c0.67,0.085,1.219,0.004,1.219-0.179c0-0.354,2.559-0.223,2.932,0.15
		c0.371,0.371-0.738,1.426-1.281,1.218c-0.7-0.269-0.642,0.526,0.098,1.342c0.709,0.784,0.438,1.454-0.56,1.379
		c-0.474-0.036-0.64-0.272-0.519-0.736c0.305-1.166-0.44-0.746-1.284,0.724C123.55,46.062,123.505,46.083,123.088,45.304z
		 M71.959,40.216c0.258-0.26,0.565-0.376,0.682-0.259c0.117,0.117-0.094,0.33-0.469,0.472C71.63,40.636,71.586,40.592,71.959,40.216
		z M150.798,39.684c-0.698-0.842-0.302-0.939,0.483-0.118c0.365,0.384,0.516,0.697,0.332,0.697S151.062,40.003,150.798,39.684z
		 M133.807,39.64c-0.317-0.129-0.262-0.378,0.189-0.836c0.449-0.457,0.773-0.535,1.078-0.261c0.238,0.215,0.344,0.542,0.232,0.726
		c-0.113,0.184,0.033,0.252,0.323,0.152c0.339-0.117,0.486-0.613,0.41-1.38c-0.116-1.16-0.088-1.186,0.919-0.803
		c0.749,0.285,1.114,0.273,1.309-0.041c0.194-0.315,0.342-0.32,0.529-0.015c0.145,0.231,0.069,0.421-0.165,0.421
		c-0.233,0-0.319,0.171-0.19,0.38c0.131,0.209,0.012,0.383-0.262,0.386c-0.361,0.004-0.343,0.106,0.071,0.374
		c0.465,0.3,0.418,0.37-0.254,0.375c-0.453,0.003-0.91-0.208-1.017-0.469c-0.121-0.3-0.203-0.245-0.222,0.149
		C136.717,39.714,135.113,40.171,133.807,39.64z M64.234,35.747c0.113-0.184,0.594-0.432,1.068-0.551
		c0.832-0.209,0.836-0.198,0.124,0.334C64.608,36.141,63.913,36.268,64.234,35.747z M73.963,31.899c0.745-0.481,1.249-0.481,0.951,0
		c-0.129,0.209-0.524,0.378-0.878,0.375C73.481,32.269,73.471,32.217,73.963,31.899z M75.865,29.999c0-0.209,0.257-0.38,0.57-0.38
		c0.314,0,0.571,0.171,0.571,0.38s-0.257,0.38-0.571,0.38C76.122,30.379,75.865,30.208,75.865,29.999z M109.825,23.306
		c0.126-0.126,0.455-0.14,0.729-0.03c0.303,0.121,0.213,0.211-0.23,0.229C109.923,23.522,109.698,23.432,109.825,23.306z
		 M107.274,22.785c-0.404-0.143-0.576-0.347-0.38-0.453c0.506-0.277,3.802-0.403,3.534-0.136
		C109.96,22.663,107.978,23.033,107.274,22.785z M109.816,21.001c-0.811-0.325-0.522-0.947,0.381-0.819
		c0.471,0.067,0.813,0.292,0.761,0.502C110.842,21.146,110.451,21.254,109.816,21.001z M104.396,20.748
		c0-0.118,0.389-0.635,0.864-1.147c0.622-0.671,1.41-0.991,2.81-1.142c1.07-0.115,2.393-0.322,2.939-0.459
		c0.738-0.185,0.994-0.104,0.994,0.315c0,0.753-1,1.551-1.532,1.222c-0.233-0.144-1.225-0.138-2.204,0.014
		c-1.417,0.22-1.625,0.339-1.019,0.583c0.691,0.279,0.674,0.31-0.19,0.338c-0.523,0.018-1.336,0.135-1.807,0.261
		C104.781,20.859,104.396,20.866,104.396,20.748z M140.812,13.781c0.258-0.104,0.771-0.11,1.142-0.014
		c0.37,0.097,0.159,0.182-0.468,0.189C140.857,13.964,140.555,13.885,140.812,13.781z"/>
	
		<radialGradient id="path2284_1_" cx="89.9038" cy="606.0928" r="221.166" gradientTransform="matrix(1.0137 0 0 0.9865 -7.295 -535.9877)" gradientUnits="userSpaceOnUse">
		<stop  offset="0" style="stop-color:#F2FFFD"/>
		<stop  offset="1" style="stop-color:#097E82"/>
	</radialGradient>
	<path id="path2284" fill="url(#path2284_1_)" d="M121.038,8.88c-6.458,0.91-12.971,1.512-19.285,3.243
		c-7.448,1.592-14.803,3.84-21.733,7.045c-7.791,3.835-15.307,8.288-22.325,13.448c-2.287,1.029-0.347,1.495-0.606,3.162
		c-0.64,1.457-1.988,2.554-3.135,3.651c-1.271,0.11-2.349,0.866-3.24,1.481c-0.431,1.647-1.362,3.961-3.434,3.588
		c-1.12-0.859,0.452-2.392,1.367-2.875c1.669-0.467,0.893-1.844-0.072-1.039c-1.333,1.175-2.773,2.598-3.762,3.914
		c0.875,0.514,2.345,0.092,1.886,2.229c0.129,1.497-0.949,2.799-1.728,3.972c-1.099-0.759-0.37-2.461-1.392-3.326
		c0.094-2.207,0.124-1.852-1.375-0.28c-2.673,3.263-5.388,6.541-7.924,9.936c2.359-1.159,4.46-2.721,6.61-4.23
		c0.435,2.003,1.126,1.404,2.336,0.551c1.468-0.644,2.6,1.306,3.389,2.259c0.288,1.105-2.161,1.929-0.316,2.357
		c0.035-1.656,1.45-2.905,2.056-4.392c0.942-0.858,3.29-1.842,1.86-3.329c-1.533-1.432-1.675-2.155,0.604-1.652
		c1.44-0.103,3.078,0.565,3.608,1.945c-0.789,1.739,1.097,3.527,2.778,3.236c1.946-0.817,2.873-3.246,4.22-4.867
		c1.69-2.6,4.369-4.553,6.35-6.765c-1.395,0.443-2.148-1.452-0.94-2.194c1.989-1.693,4.309-3.024,5.779-5.265
		c-3.39,1.056-6.537,2.605-9.943,3.595c-1.781,0.176-3.339,1.047-4.922,1.83c-1.113-0.97-0.705-2.522,0.579-3.065
		c3.08-2.185,5.974-4.599,8.786-7.125c3.099-2.426,6.287-5.327,10.277-5.763c1.432,0.778,2.878,1.531,4.301,2.325
		c-1.07,2.067,1.474,0.897,2.625,1.156c1.663-0.104,3.315,0.173,4.966,0.329c0.73,1.602-0.812,2.352-2.151,1.941
		c-1.669,0.219-2.822,1.429-3.669,2.838c-1.421,1.356-2.785-0.522-4.333-0.291c-1.402,1.733-2.805,3.466-4.207,5.199
		c2.815-0.595,4.917-2.977,7.718-3.713c-0.312,0.696-2.257,2.987-1.439,2.467c3.183-2.158,6.166-4.617,9.505-6.537
		c1.518-1.259,3.036-2.519,4.554-3.778c-1.892-0.701-3.817,0.834-5.689,1.186c-0.918,0.321-2.578,0.139-2.914-0.637
		c0.403-2.362,3.192-2.58,5.031-3.221c1.348-0.413,3.174-0.499,0.757-0.718c-1.097,0.175-3.294-0.256-1.929-1.679
		c0.948-1.166,2.183-1.817,3.574-2.261c0.587,1.949,2.487,0.689,3.915,0.791c1.615,0.013,3.134-0.472,4.39-1.454
		c2.695-0.649,0.088-0.48-0.912-1.381c-1.104-1.394,1.151-2.112,2.263-2.34c4.506-1.469,9.163-2.646,13.87-3.153
		c4.697-0.406,9.408-0.617,14.111-0.924c2.246-1.215,0.978-1.452-0.914-1.371C127.553,8.631,124.305,8.78,121.038,8.88z
		 M153.331,16.34c1.222,1.832,3.216,3.55,3.132,5.942c-1.095,1.222,1.998,0.531,2.752,1.324c0.738,0.869,2.016,1.777,1.961,2.971
		c-0.625,1.162-3,0.77-1.171,2.099c0.524,1.246-0.675,2.396-1.36,3.229c-1.842,0.654-3.701-0.792-5.524,0.163
		c-2.036,0.463-0.947,0.282-0.162,1.494c0.226,1.119-0.413,2.452,0.597,3.607c0.573,2.305,1.192,4.6,1.739,6.911
		c-1.536,0.308,0.156,3.062-1.962,2.26c-1.479-2.118-1.684-0.326-0.564,1.083c0.734,1.688,2.031,3.008,3.063,4.504
		c-2.047,0.095-4.104,0.506-6.138,0.032c1.853,0.403,0.834,2.302-0.266,2.994c-1.529,1.162-3.209,2.545-5.078,2.997
		c-2.139-0.6-1.574,0.542-0.729,1.838c0.7,1.65-1.539,1.423-2.528,1.052c-4.177-1.61-7.921-4.577-12.297-5.496
		c-2.828,0.654-6.034,1.166-8.018,3.503c-1.054,2.451-3.203,4.258-5.083,6.04c-2.147,1.785-4.984,3.084-6.263,5.673
		c-0.144,1.319-0.616,3.157,0.443,4.134c1.3-0.083,2.943-1.098,4.048-0.388c0.415,1.345,0.065,2.839,1.139,3.94
		c0.367,1.713-1.603,3.194-3.1,2.293c-0.909-0.685,1.223-2.216,0.712-2.804c-1.307,0.442-2.553,1.249-2.518,2.827
		c-0.232,1.673-0.982,3.549-2.899,3.622c-2.602,0.242-3.978,2.752-6.428,3.427c0.453,1.187-1.667,1.41-2.404,1.97
		c-1.304,0.245-2.61,0.383-3.922,0.097c-0.314,1.651-3.33-0.137-2.645,1.733c1.013,2.135,2.222,4.603,0.995,6.931
		c-0.522,1.304-1.384,2.502-2.935,2.1c-2.365-0.309-4.609-1.503-6.929-2.142c-2.037,1.004-1.444,3.895-2.805,5.516
		c-1.052,1.438-1.115,3.271-1.686,4.915c0.961,1.147,3.311,1.559,2.865,3.519c-0.267,1.524-0.948,3.08-2.473,3.685
		c-1.855,1.283-3.869,2.624-5.215,4.427c-0.732,1.775-1.854,3.604-3.812,4c-2.059,0.655-4.062,1.412-5.575,3.053
		c-2.369,2.243-4.514,4.838-6.156,7.661c-0.662,1.908-0.679,3.9-0.636,5.885c-1.274,3.518-3.32,7.176-2.548,11.001
		c1.582,2.636,3.937,5.077,3.971,8.343c2.772,3.035,5.545,6.071,8.318,9.107c4.035,0.593,7.881,2.236,11.924,2.656
		c2.845,0.174,5.78-0.242,8.573,0.201c2.693,0.377,3.224,4.064,5.971,4.354c1.74,0.512,3.525,0.859,5.288,1.281
		c-1.169,1.254,1.46,1.221,0.949,2.647c-0.376,2.132-1.379,4.347-1.443,6.416c1.967,3.607,5.548,6.072,6.875,10.068
		c0.943,2.437,1.792,5.01,2.665,7.51c-1.396,2.05-3.994,4.251-2.829,6.994c2.493,3.421,4.541,7.219,7.325,10.394
		c1.95,1.866,3.693,4.092,5.745,5.764c4.39,1.376,8.977-0.076,13.438-0.311c2.658-0.068,5.086-1.424,7.381-2.662
		c1.994-1.146,3.811-2.547,5.314-4.289c1.423-0.759,3.646-1.261,3.369-3.359c-0.047-1.387,0.018-2.787,1.279-3.617
		c3.315-2.111,6.576-4.277,9.741-6.619c0.039-2.385-0.047-4.748-1.055-6.945c-0.854-1.496,0.578-3.1-0.244-4.651
		c0-1.388,0.485-2.849,0.572-4.228c4.896-5.631,9.913-11.172,14.733-16.856c2.217-4.037,4.377-8.188,5.508-12.691
		c-0.932-1.304-2.659,0.66-3.842,0.929c-2.77,1.358-5.471,2.836-8.524,3.336c-2.292-2.931-4.945-5.52-7.623-8.074
		c-0.945,1.123-2.981,0.062-2.529-1.389c-0.983-2.873-3.879-4.547-4.522-7.588c-0.393-2.119-2.401-3.091-3.144-5.005
		c-1.383-2.352-2.553-4.983-3.403-7.493c0.225-1.783,2.033-1.478,3.125-0.701c2.254,2.322,4.467,5.012,6.51,7.551
		c1.72,4.488,5.791,7.303,8.307,11.212c0.967,2.047,1.652,4.241,2.965,6.094c3.316-0.642,5.812-3.303,8.526-5.057
		c3.144-2.122,5.405-5.251,8.396-7.569c1.594-1.578,3.116-3.206,3.825-5.406c1.144-1.967,1.335-4.272,1.899-6.445
		c-1.33-0.943-2.893-1.254-4.428-1.582c-1.246-0.289-1.217-3.762-2.252-1.54c-1.017,1.308-1.584,3.181-3.416,3.469
		c-0.871,0.526-3.074,1.471-3.162-0.181c0.037-2.232-0.502-1.536-1.885-1.229c-1.057-0.67-1.436-2.333-2.621-3.059
		c-1.068-1.219-3.343-2.756-2.162-4.566c0.959-0.535,1.641-2.729,2.182-2.487c1.646,2.12,3.381,4.44,6.22,4.792
		c2.116,0.822,4.144-0.276,5.942-1.351c1.015-0.396,3.586-2.379,2.056-0.207c-1.515,1.632,0.955,1.864,2.085,1.392
		c3.701-0.36,6.947-2.696,10.299-3.915c3.096,1.938,6.18,4.154,9.867,4.618c2.689,0.601,3.068,3.902,4.586,5.844
		c1.93,3.371,4.062,6.605,6.23,9.818c1.5,0.312,1.107-2.125,2.594-2.261c0.881,0.207,1.363,2.132,1.771,3.101
		c1.164-1.947-1.062-3.762-1.644-5.576c-1.349-2.692-1.339-5.864-1.899-8.795c1.854-5.744,2.487-11.817,4.246-17.572
		c0.469-1.569,1.295-3.049,2.176-4.386c1.848-0.875,3.271,1.248,4.449,2.375c1.098,0.784,1.469,3.477,1.877,0.793
		c0.414-0.675,0.825-4.373,1.264-2.522c1.08,3.385,2.037,6.817,3.195,10.172c-0.597-1.918-0.559-3.975-0.254-5.91
		c0.441-2.065,2.926,0.901,2.569-0.837c-0.163-3.441-0.567-6.933-1.481-10.223c-1.754-2.452-3.817-4.968-3.752-8.185
		c-0.134-1.798-0.293-3.595-0.403-5.395c1.349,2.576,0.667,0.214,0.306-1.288c-0.816-3.554-1.648-7.105-2.457-10.661
		c1.621-0.668-0.092-2.072-0.537-3.003c-2.471-3.777-4.802-7.748-7.717-11.153c-1.456-1.122-3.211-1.921-3.805-3.837
		c-0.693-1.293-2.666-0.664-3.312-2.144c-0.867-1.103-2.533-2.323-1.846-3.899c0.459-1.235-1.602-4.038,0.633-2.276
		c1.538,0.826,2.889,1.825,4.219,2.964c-0.436-1.839-2.666-2.551-3.957-3.784c-5.062-3.958-8.588-9.529-13.502-13.693
		c-1.313-1.388-2.836-2.608-4.295-3.754c-0.369-1.547-1.377-2.005-2.979-2.475c-1.256-0.516-2.639-0.799-3.385-1.967
		c-1.974-1.067-1.461-0.494-0.688,1.061c-0.361,1.855-2.266,0.403-3.395,0.102c-5.197-3.406-10.032-7.545-15.211-10.958
		c-1.946-0.154-3.715-1.164-5.443-1.959c0.111-1.657-0.862-1.617-2.629-2.045c-4.766-1.203-9.508-2.651-14.292-3.689
		c-2.38,0.351-4.728-0.295-6.99-0.983C145.275,12.788,149.305,14.564,153.331,16.34z M100.574,13.143
		c1.442,0.372,0.983,2.381-0.316,2.422c-1.281,0.369-2.265-1.24-1.097-2.045C99.462,12.979,100.078,13.208,100.574,13.143z
		 M97.98,16.275c0.738,1.082-0.301,2.635-1.486,2.293c-1.368-0.647-0.819-2.637,0.695-2.264
		C97.453,16.296,97.716,16.27,97.98,16.275z M97.664,22.444c-2.625,0.457-0.722,0.477,0.854,0.646
		c1.687-0.007,1.87,1.761,0.917,2.745c0.408,1.379,2.588,0.57,3.718,1.05c1.697,0.124,3.614,0.593,4.758,1.856
		c0.384,1.588-1.28,2.163-2.482,1.579c-1.574-0.57-3.299-0.521-4.628,0.633c-1.355,0.517-1.086,2.455-2.46,3.05
		c-2.194,1.669-4.606,3.25-6.977,4.559c-1.692,0.216-2.188,0.985-2.825,2.3c-1.885,0.594-4.179,0.127-5.704,1.752
		c-2.89,1.932-5.062,4.696-7.503,7.149c-1.053,2.038-0.055,2.504,1.637,1.362c2.435-0.896,4.817-2.132,7.283-2.836
		c4.738,0.075,9.626,0.885,14.255-0.314c2.704-1.693,5.108-3.86,8.138-4.929c0.871-1.13,1.807-2.218,3.04-2.879
		c0.87-1.253,1.863-2.392,3.444-2.566c1.383-0.205,2.427-1.217,1.487-2.531c1.125-1.555-0.331-2.325-1.628-2.938
		c-0.889-0.958-3.745-1.157-2.836-2.8c0.773-0.942,2.805-1.758,1.112-3.101c-1.291-1.095-3.053-1.362-4.618-1.914
		c-0.889,1.083-2.523,2.392-3.795,1.163c-1.118-1.185,0.56-2.289,1.012-3.003c-1.144,0.846-2.717,1.52-3.861,0.259
		C99.33,22.168,98.461,22.072,97.664,22.444z M52.751,36.685c-1.198,0.727-2.661,2.593-0.538,1.098
		c0.661-0.769,2.479-2.865,0.657-1.195L52.751,36.685z M123.537,42.078c-1.042,1.708,1.199,1.936,1.71,0.235
		C126.812,40.803,124.1,42.12,123.537,42.078z M143.811,44.242c-0.627,1.955,0.244,3.96,0.633,5.877
		c1.861,1.559,0.945,0.43,0.119-0.988c-0.526-1.79,0.097-3.751-0.213-5.6C144.17,43.768,143.99,44.005,143.811,44.242z
		 M93.015,55.254c-0.622,1.11-1.783,3.569,0.505,3.208c1.065,0.083,3.39,0.039,3.322-1.238c-1.146-0.865-3.123-0.329-3.637-2.002
		L93.015,55.254z M51.865,58.096c-0.861,0.864-0.09,2.332-0.569,3.488c1.121-0.975,1.791-2.576,2.056-4.101
		C52.856,57.687,52.361,57.891,51.865,58.096z M138.117,61.099c1.177,0.226,3.262,0.715,2.576,2.375
		c-0.187,1.476-2.176,0.729-1.893,2.071c-0.688,1.529-2.376,0.013-3.404-0.313c1.125-1.239-0.291-2.301,0.223-3.487
		C136.296,61.051,137.25,61.259,138.117,61.099z M127.206,62.875c1.47,0.374,1.292,2.098,0.324,2.936
		c-0.508,1.47-3.244,1.205-2.722,3.038c0.209,1.617,0.112,4.145-1.919,4.355c-1.715,0.499-3.532-1.575-2.478-3.186
		c0.699-1.586,1.873-2.761,3.221-3.784c0.476-1.505,1.285-2.67,2.799-3.192C126.647,62.841,126.94,62.897,127.206,62.875z
		 M133.816,69.657c1.007,0.238,2.229,1.172,2.562,2.196c0.052,1.5-1.901,2.025-2.815,0.936c-0.987-0.911-0.762-2.11,0.064-3.035
		l0.062-0.097H133.816z M132.456,71.433c-0.134,1.542-0.692,2.988-2.024,3.843c-1.686-0.46-0.646-2.267,0.258-2.989
		C130.977,71.879,132.465,70.456,132.456,71.433z M97.949,72.854c-2.279-0.22-1.416,1.21-2.079,2.444
		c-1.02,1.891-3.183,2.327-4.968,3.085c-1.152,0.678-1.757,2.082-2.367,3.184c0.972,0.792,2.843-0.062,3.636-0.93
		c0.686-1.237,2.12-3.064,3.581-1.763c1.762,0.349,1.173,2.408-0.049,3.087c-1.439,0.687-1.966,2.195-2.445,3.608
		c-1.317,1.329,1.909,0.635,2.732,1.096c1.299,0.054,3.496,1.021,3.635-1.056c-0.161-2.931-0.87-5.855-1.068-8.741
		c0.948-1.343-0.231-2.842,0.327-4.163C99.305,72.246,98.005,72.916,97.949,72.854z M125.182,73.08
		c0.88,0.166,3.243,0.17,2.74,1.411c-1.548,1.428-0.92,1.089,0.138,2.41c0.868,1.233-0.718,3.419-1.993,2.218
		c-0.983-2.307-1.174,0.148-1.592,1.415c-0.674,1.278-1.082,3.443-2.899,3.252c-1.871-0.398-3.608,0.616-5.472,0.532
		c-1.072-0.625-3.43-1.607-2.056-3.133c1.529,0.166,2.216-1.087,3.322-1.797c1.95-0.666,1.121-3.566,2.908-4.5
		c1.349-1.054,2.802-1.765,4.531-1.758C124.936,73.147,125.056,73.074,125.182,73.08z M142.197,73.726
		c1.271,0.343,1.316,2.203,0.189,2.648c-1.259,0.272-2.433-1.214-1.341-2.189C141.236,73.71,141.797,73.812,142.197,73.726z
		 M161.713,95.879c2.199,1.526,4.489,3.035,6.579,4.682c1.317,3.107,2.897,6.165,4.063,9.3c0.473,1.962-1.834,2.589-3.303,2.631
		c-1.396-0.179-2.924-0.904-4.052-1.597c-0.103-1.611-0.752-3.505,0.412-4.876c-1.888-1.511-3.953-2.959-5.362-4.928
		c-0.594-1.556-1.406-3.713,0.079-4.986C160.659,96.036,161.184,95.924,161.713,95.879z M145.993,97.074
		c1.167,0.809,1.003,2.796-0.315,3.262c2.934,1.031,5.706,2.689,8.16,4.683c-0.025,1.649-1.234,2.77-2.742,3.087
		c-2.965,0.782-6.137-0.197-9.183-0.052c-2.239,0.532-4.54,1.515-6.831,1.453c0.838,1.386-1.045,2.42-2.119,1.55
		c-1.164-1.122,1.812-2.134,0.062-3.003c-0.92-1.875,0.723-3.598,1.188-5.365c1.039-1.704,1.495-4.673,3.998-4.484
		c1.086,0.877,2.125,1.775,3.036,2.842c1.009-0.525,3.867-0.197,1.911-1.368C141.914,97.855,144.557,96.809,145.993,97.074z
		 M111.96,99.334c2.254,2.378,4.154,5.362,7.095,6.94c2.377,1.464,1.531,4.806,2.978,6.937c0.737,1.689,1.318,3.578,2.895,4.659
		c0.843-0.796,1.189-2.176,2.586-2.076c0.009-1.142-2.047-1.487-2.522-2.671c-0.495-1.528,1.149-2.166,2.247-2.605
		c0.937-0.409,2.474-1.917,3.035-0.353c0.931,2.352,1.526,4.829,2.81,7.066c0.368,2.041,1.884-0.662,3.17,0.703
		c1.415,0.312,2.556-1.214,4.008-0.419c1.729,0.776,3.599-0.53,5.261-0.485c1.758,0.73,1.928,2.782,1.56,4.449
		c-0.233,2.566-0.924,5.222-2.13,7.403c-2.271,0.884-4.762-0.045-7.018,0.916c-3.338,0.925-6.742-0.401-9.932-1.301
		c-1.903-0.645-3.964-2.102-5.915-0.89c-1.662,0.515-0.604,3.452-2.63,3.439c-1.954,0.312-3.685-0.907-5.307-1.828
		c-2.86-2.636-6.861-3.534-9.716-6.116c-0.694-1.342,0.732-2.043,1.25-2.907c-0.479-1.096-0.307-2.508-0.596-3.4
		c-2.781-0.716-5.857-0.598-8.751-0.991c-3.37-0.126-6.726,0.002-10.058,0.549c-1.669-0.092-3.456-0.601-4.649-1.712
		c-0.663-1.802,1.3-3.237,2.91-2.745c2.507,0.5,5.015-0.942,6.067-3.273c1.389-2.881,5.236-3.026,6.553-5.962
		c1.569-1.775,4.013,0.361,5.906-0.712c1.448-0.221,3.587-1.326,4.459,0.422c0.75,1.668,1.297,3.443,2.867,4.535
		c1.857,1.867,4.554,3.353,4.986,6.218c0.188,0.927,0.386-2.263,0.135-3.067c2.031,0.609,1.446,0.044-0.101-1.163
		c-2.156-1.529-3.502-3.922-4.905-6.104c-0.446-1.368,0.155-2.794,1.266-3.617L111.96,99.334z M104.749,109.668
		C104.464,111.918,105.496,107.968,104.749,109.668z M111.423,115.449c-2.05-0.591,1.11,2.034,1.55,0.594
		C114.929,114.357,112.381,115.548,111.423,115.449z M238.54,128.754c0.481,1.447,0.54,2.941,0.442,4.457
		c-1.129-0.016-3.461-0.128-2.403,1.582c0.347,1.119,2.095,1.047,1.993,2.591c0.469,1.97,0.418-1.827,0.556-2.583
		c0.14-2.666,0.034-5.467-0.745-8.015c-0.757-1.432-1.871-3.359-0.764-0.656C237.926,127.004,238.232,127.879,238.54,128.754z
		 M14.227,131.24c0.917,8.006,2.239,15.99,4.706,23.664c2.232,7.3,5.182,14.386,8.768,21.096c-0.18-1.479-1.478-3.132-0.072-4.348
		c1.363-1.521,1.724-3.694,0.725-5.531c-1.823-4.973-4.886-9.362-7.125-14.15c-2.296-4.205-3.856-8.822-4.642-13.592
		c-0.91-4.564-1.911-9.111-2.74-13.694C13.974,126.87,14.101,129.057,14.227,131.24z M147.448,185.914
		c0.884,1.398,0.517,2.568-0.632,3.615c-1.117,0.945-2.85,2.266-4.112,0.775c-0.464-1.494,0.386-3.289,1.967-3.679
		C145.416,186.182,146.753,185.525,147.448,185.914z M138.434,196.409c1.127,0.245,3.07,0.778,2.383,2.342
		c-0.728,1.104-2.557-0.19-3.108-1.244C137.748,197.048,137.921,196.424,138.434,196.409z M174.459,202.125
		c-2.068,2.395-4.525,4.461-7.559,5.457c-1.75,1.818-0.756,4.749-2.531,6.557c-1.145,1.649-0.201,2.948,1.538,1.723
		c2.694-0.981,3.962-3.944,5.649-6.105c1.273-2.492,3.156-4.742,4.061-7.383C175.531,201.326,174.971,201.082,174.459,202.125z
		 M148.65,202.545c1.109,1.533,0.314,3.436,0,5.102c-1.301-0.781-2.194-1.75-1.866-3.391
		C146.67,202.949,147.646,202.111,148.65,202.545z"/>
</g>
<g id="layer1" inkscape:label="Layer 1" inkscape:groupmode="layer">
	<path id="path2248" sodipodi:nodetypes="ccc" opacity="0.5" fill="#FFFFFF" enable-background="new    " d="M57.28,209.686
		c0,0,56.086,39.562,137.404,2.535C113.368,245.906,56.927,209.686,57.28,209.686z"/>
	<path id="path2250" sodipodi:nodetypes="ccc" opacity="0.5" fill="#0E0047" enable-background="new    " d="M57.28,209.686
		c0,0,56.793,36.025,137.404,2.535C113.721,241.311,56.927,209.686,57.28,209.686z"/>
	<path id="path2252" sodipodi:nodetypes="ccc" opacity="0.5" fill="#FFFFFF" enable-background="new    " d="M14.49,115.287
		c14.496,77.428,200.775,85.523,224.111,2.536C212.793,192.166,41.006,196.25,14.49,115.287z"/>
	<path id="path2254" sodipodi:nodetypes="ccc" opacity="0.5" fill="#0D3147" enable-background="new    " d="M14.49,115.287
		c22.981,77.781,196.18,79.865,224.111,2.536C207.488,190.398,47.724,192.361,14.49,115.287z"/>
	<path id="path2264" opacity="0.5" fill="#FFFFFF" enable-background="new    " d="M67.671,26.296
		c-4.832,4.326-8.336,9.142-9.75,14.375c2.04-5.302,6.252-10.11,11.781-14.375H67.671z M57.921,40.671
		c-1.003,2.607-1.531,5.323-1.531,8.094c0,21.468,31.655,38.875,70.688,38.875c39.031,0,70.719-17.407,70.719-38.875
		c0-2.761-0.535-5.464-1.531-8.062c0.496,1.851,0.812,3.73,0.812,5.656c0,21.253-31.359,38.5-70,38.5c-38.642,0-70-17.247-70-38.5
		C57.078,44.422,57.419,42.531,57.921,40.671z M196.266,40.703c-1.41-5.245-4.906-10.072-9.75-14.406h-2
		C190.045,30.565,194.23,35.397,196.266,40.703z"/>
	<path id="path2256" opacity="0.4" fill="#164775" enable-background="new    " d="M65.453,26.296
		c-3.686,3.802-6.335,7.949-7.531,12.375c1.718-4.466,4.882-8.618,9.125-12.375H65.453z M57.921,38.671
		c-1.003,2.607-1.531,5.323-1.531,8.094c0,21.468,31.655,38.875,70.688,38.875c39.031,0,70.719-17.407,70.719-38.875
		c0-2.761-0.535-5.464-1.531-8.062c0.496,1.851,0.812,3.73,0.812,5.656c0,21.253-31.359,38.5-70,38.5c-38.642,0-70-17.247-70-38.5
		C57.078,42.422,57.419,40.531,57.921,38.671z M196.266,38.703c-1.19-4.43-3.813-8.601-7.5-12.406h-1.594
		C191.415,30.058,194.552,34.233,196.266,38.703z"/>
	
		<path id="path1493" sodipodi:type="arc" sodipodi:cx="372.90503" sodipodi:cy="376.39664" sodipodi:rx="364.52515" sodipodi:ry="359.63687" fill="none" d="
		M241,122c0,62.961-51.039,114-114,114c-62.96,0-114-51.039-114-114S64.04,8,127,8C189.961,8,241,59.039,241,122z"/>
</g>
<path id="path6502_2_" sodipodi:nodetypes="cssc" fill="none" stroke="#FF0000" stroke-width="4" d="M148.143,11.002"/>
<path id="path6502_1_" sodipodi:nodetypes="cssc" fill="none" stroke="#FF0000" stroke-width="4" d="M88.253,227.832"/>
<path id="path6500" sodipodi:nodetypes="csssc" fill="none" stroke="#FF0000" stroke-width="12" d="M14.333,112.5
	c40.516-46.564,195.896,43.971,222.949-12.594"/>
<g>
	<path d="M171.23,83.115c0,3.505-0.326,6.654-0.975,9.444c-0.65,2.793-1.785,5.52-3.406,8.179c-1.625,2.662-3.799,5.388-6.523,8.178
		c-2.727,2.793-6.23,5.939-10.516,9.444c-1.819,1.43-3.345,2.696-4.576,3.797c-1.234,1.104-2.238,2.175-3.019,3.212
		c-0.778,1.041-1.43,2.112-1.946,3.214c-0.521,1.104-1.041,2.435-1.56,3.991c-0.263,0.91-0.422,1.688-0.485,2.337
		c-0.066,0.651-0.164,1.396-0.293,2.239c-0.131,0.846-0.228,1.85-0.291,3.019c-0.066,1.168-0.164,2.726-0.293,4.673h-19.667
		c0.128-3.115,0.259-5.711,0.39-7.789c0.128-2.074,0.292-3.895,0.487-5.451c0.195-1.558,0.453-2.922,0.779-4.089
		c0.323-1.169,0.682-2.401,1.071-3.7c1.037-2.075,2.075-3.992,3.115-5.745c1.038-1.752,2.464-3.535,4.284-5.355
		c0.648-0.648,1.199-1.168,1.655-1.558c0.454-0.39,1.589-1.363,3.407-2.921l4.479-4.673c3.764-3.243,6.456-6.456,8.081-9.639
		c1.621-3.18,2.435-6.523,2.435-10.028c0-4.153-1.654-7.463-4.965-9.931c-3.312-2.465-7.888-3.7-13.729-3.7
		c-7.141,0-12.462,1.689-15.967,5.063c-3.505,3.377-5.519,8.568-6.036,15.578H84.773c0.259-6.231,1.004-11.456,2.239-15.675
		c1.232-4.217,3.213-8.145,5.939-11.781c4.153-5.453,9.313-9.572,15.48-12.365c6.164-2.79,13.402-4.187,21.711-4.187
		c6.23,0,11.844,0.876,16.844,2.629c4.994,1.752,9.312,4.253,12.949,7.497c3.633,3.247,6.426,7.077,8.373,11.489
		C170.257,72.925,171.23,77.793,171.23,83.115z M115.929,169.961c0-3.374,1.135-6.197,3.408-8.47
		c2.27-2.271,5.093-3.408,8.471-3.408c3.375,0,6.198,1.138,8.469,3.408c2.271,2.272,3.408,5.096,3.408,8.47
		c0,3.506-1.139,6.46-3.408,8.859c-2.271,2.4-5.096,3.604-8.469,3.604c-3.377,0-6.201-1.201-8.471-3.604
		C117.063,176.421,115.929,173.467,115.929,169.961z"/>
</g>
</svg>
